<svg width="129" height="17" viewBox="0 0 129 17" fill="none" xmlns="http://www.w3.org/2000/svg">
<path d="M0.651163 15.6977H1.30233V16.3488H0.651163V15.6977ZM0.651163 15.0465H1.30233V15.6977H0.651163V15.0465ZM1.30233 15.0465H1.95349V15.6977H1.30233V15.0465ZM1.95349 14.3953H2.60465V15.0465H1.95349V14.3953ZM1.95349 13.7442H2.60465V14.3953H1.95349V13.7442ZM2.60465 13.7442H3.25581V14.3953H2.60465V13.7442ZM4.55814 13.7442H5.2093V14.3953H4.55814V13.7442ZM3.90698 13.093H4.55814V13.7442H3.90698V13.093ZM3.90698 12.4419H4.55814V13.093H3.90698V12.4419ZM4.55814 12.4419H5.2093V13.093H4.55814V12.4419ZM4.55814 13.093H5.2093V13.7442H4.55814V13.093ZM5.86046 13.093H6.51163V13.7442H5.86046V13.093ZM5.86046 13.7442H6.51163V14.3953H5.86046V13.7442ZM5.2093 13.7442H5.86046V14.3953H5.2093V13.7442ZM5.2093 13.093H5.86046V13.7442H5.2093V13.093ZM7.16279 13.7442H7.81395V14.3953H7.16279V13.7442ZM5.86046 14.3953H6.51163V15.0465H5.86046V14.3953ZM5.2093 14.3953H5.86046V15.0465H5.2093V14.3953ZM5.86046 15.0465H6.51163V15.6977H5.86046V15.0465ZM6.51163 15.0465H7.16279V15.6977H6.51163V15.0465ZM7.16279 15.0465H7.81395V15.6977H7.16279V15.0465ZM7.16279 15.6977H7.81395V16.3488H7.16279V15.6977ZM6.51163 15.6977H7.16279V16.3488H6.51163V15.6977ZM6.51163 14.3953H7.16279V15.0465H6.51163V14.3953ZM7.16279 14.3953H7.81395V15.0465H7.16279V14.3953ZM12.3721 13.093H13.0233V13.7442H12.3721V13.093ZM12.3721 12.4419H13.0233V13.093H12.3721V12.4419ZM13.0233 12.4419H13.6744V13.093H13.0233V12.4419ZM13.6744 11.7907H14.3256V12.4419H13.6744V11.7907ZM13.6744 11.1395H14.3256V11.7907H13.6744V11.1395ZM11.0698 11.7907H11.7209V12.4419H11.0698V11.7907ZM11.7209 11.7907H12.3721V12.4419H11.7209V11.7907ZM13.0233 10.4884H13.6744V11.1395H13.0233V10.4884ZM13.0233 9.83721H13.6744V10.4884H13.0233V9.83721ZM12.3721 9.83721H13.0233V10.4884H12.3721V9.83721ZM11.7209 9.18605H12.3721V9.83721H11.7209V9.18605ZM11.7209 8.53488H12.3721V9.18605H11.7209V8.53488ZM11.0698 8.53488H11.7209V9.18605H11.0698V8.53488ZM13.6744 10.4884H14.3256V11.1395H13.6744V10.4884ZM13.6744 9.83721H14.3256V10.4884H13.6744V9.83721ZM12.3721 9.18605H13.0233V9.83721H12.3721V9.18605ZM12.3721 8.53488H13.0233V9.18605H12.3721V8.53488ZM13.0233 9.18605H13.6744V9.83721H13.0233V9.18605ZM11.0698 7.88372H11.7209V8.53488H11.0698V7.88372ZM7.81395 6.5814H8.46512V7.23256H7.81395V6.5814ZM8.46512 6.5814H9.11628V7.23256H8.46512V6.5814ZM10.4186 7.88372H11.0698V8.53488H10.4186V7.88372ZM9.76744 7.23256H10.4186V7.88372H9.76744V7.23256ZM9.76744 7.88372H10.4186V8.53488H9.76744V7.88372ZM9.11628 7.23256H9.76744V7.88372H9.11628V7.23256ZM8.46512 7.23256H9.11628V7.88372H8.46512V7.23256ZM9.11628 7.88372H9.76744V8.53488H9.11628V7.88372ZM10.4186 11.1395H11.0698V11.7907H10.4186V11.1395ZM9.76744 11.1395H10.4186V11.7907H9.76744V11.1395ZM9.11628 11.1395H9.76744V11.7907H9.11628V11.1395ZM8.46512 10.4884H9.11628V11.1395H8.46512V10.4884ZM9.11628 10.4884H9.76744V11.1395H9.11628V10.4884ZM7.81395 9.83721H8.46512V10.4884H7.81395V9.83721ZM7.16279 9.83721H7.81395V10.4884H7.16279V9.83721ZM7.81395 10.4884H8.46512V11.1395H7.81395V10.4884ZM6.51163 9.83721H7.16279V10.4884H6.51163V9.83721ZM6.51163 9.18605H7.16279V9.83721H6.51163V9.18605ZM3.25581 4.62791H3.90698V5.27907H3.25581V4.62791ZM3.90698 3.32558H4.55814V3.97674H3.90698V3.32558ZM5.2093 1.37209H5.86046V2.02326H5.2093V1.37209ZM5.86046 1.37209H6.51163V2.02326H5.86046V1.37209ZM7.16279 5.93023H7.81395V6.5814H7.16279V5.93023ZM10.4186 3.32558H11.0698V3.97674H10.4186V3.32558ZM10.4186 2.67442H11.0698V3.32558H10.4186V2.67442ZM11.0698 3.32558H11.7209V3.97674H11.0698V3.32558ZM10.4186 3.97674H11.0698V4.62791H10.4186V3.97674ZM11.0698 3.97674H11.7209V4.62791H11.0698V3.97674ZM12.3721 2.67442H13.0233V3.32558H12.3721V2.67442ZM11.7209 3.32558H12.3721V3.97674H11.7209V3.32558ZM9.76744 2.67442H10.4186V3.32558H9.76744V2.67442ZM9.11628 2.67442H9.76744V3.32558H9.11628V2.67442ZM9.11628 3.32558H9.76744V3.97674H9.11628V3.32558ZM9.76744 3.32558H10.4186V3.97674H9.76744V3.32558ZM8.46512 2.67442H9.11628V3.32558H8.46512V2.67442ZM9.76744 2.02326H10.4186V2.67442H9.76744V2.02326ZM9.11628 1.37209H9.76744V2.02326H9.11628V1.37209ZM8.46512 1.37209H9.11628V2.02326H8.46512V1.37209ZM7.81395 1.37209H8.46512V2.02326H7.81395V1.37209ZM6.51163 2.02326H7.16279V2.67442H6.51163V2.02326ZM7.16279 1.37209H7.81395V2.02326H7.16279V1.37209ZM6.51163 1.37209H7.16279V2.02326H6.51163V1.37209ZM8.46512 2.02326H9.11628V2.67442H8.46512V2.02326ZM9.11628 2.02326H9.76744V2.67442H9.11628V2.02326ZM7.81395 2.02326H8.46512V2.67442H7.81395V2.02326ZM7.16279 2.02326H7.81395V2.67442H7.16279V2.02326ZM13.0233 2.02326H13.6744V2.67442H13.0233V2.02326ZM13.6744 1.37209H14.3256V2.02326H13.6744V1.37209ZM1.30233 14.3953H1.95349V15.0465H1.30233V14.3953ZM7.81395 0.720931H8.46512V1.37209H7.81395V0.720931ZM7.16279 0.720931H7.81395V1.37209H7.16279V0.720931ZM6.51163 0.720931H7.16279V1.37209H6.51163V0.720931ZM9.76744 3.97674H10.4186V4.62791H9.76744V3.97674ZM8.46512 15.0465H9.11628V15.6977H8.46512V15.0465ZM11.7209 12.4419H12.3721V13.093H11.7209V12.4419ZM8.46512 15.6977H9.11628V16.3488H8.46512V15.6977ZM9.11628 15.6977H9.76744V16.3488H9.11628V15.6977ZM9.76744 15.0465H10.4186V15.6977H9.76744V15.0465ZM9.11628 15.0465H9.76744V15.6977H9.11628V15.0465ZM11.7209 13.7442H12.3721V14.3953H11.7209V13.7442ZM2.60465 13.093H3.25581V13.7442H2.60465V13.093ZM11.7209 13.093H12.3721V13.7442H11.7209V13.093ZM1.95349 5.93023H2.60465V6.5814H1.95349V5.93023ZM1.95349 5.27907H2.60465V5.93023H1.95349V5.27907ZM3.25581 3.32558H3.90698V3.97674H3.25581V3.32558ZM3.90698 2.67442H4.55814V3.32558H3.90698V2.67442ZM3.90698 2.02326H4.55814V2.67442H3.90698V2.02326ZM1.95349 4.62791H2.60465V5.27907H1.95349V4.62791ZM1.95349 3.97674H2.60465V4.62791H1.95349V3.97674ZM2.60465 3.32558H3.25581V3.97674H2.60465V3.32558ZM2.60465 2.67442H3.25581V3.32558H2.60465V2.67442ZM3.25581 2.67442H3.90698V3.32558H3.25581V2.67442ZM3.25581 2.02326H3.90698V2.67442H3.25581V2.02326ZM3.90698 1.37209H4.55814V2.02326H3.90698V1.37209ZM4.55814 1.37209H5.2093V2.02326H4.55814V1.37209ZM4.55814 0.720931H5.2093V1.37209H4.55814V0.720931ZM5.86046 0.720931H6.51163V1.37209H5.86046V0.720931ZM5.2093 0.720931H5.86046V1.37209H5.2093V0.720931ZM2.60465 2.02326H3.25581V2.67442H2.60465V2.02326ZM3.25581 1.37209H3.90698V2.02326H3.25581V1.37209ZM10.4186 2.02326H11.0698V2.67442H10.4186V2.02326ZM3.90698 13.7442H4.55814V14.3953H3.90698V13.7442ZM3.90698 3.97674H4.55814V4.62791H3.90698V3.97674ZM5.2093 5.27907H5.86046V5.93023H5.2093V5.27907ZM5.86046 5.27907H6.51163V5.93023H5.86046V5.27907ZM7.16279 6.5814H7.81395V7.23256H7.16279V6.5814ZM8.46512 7.88372H9.11628V8.53488H8.46512V7.88372ZM11.0698 9.18605H11.7209V9.83721H11.0698V9.18605ZM10.4186 11.7907H11.0698V12.4419H10.4186V11.7907ZM9.76744 15.6977H10.4186V16.3488H9.76744V15.6977ZM10.4186 15.0465H11.0698V15.6977H10.4186V15.0465ZM3.25581 12.4419H3.90698V13.093H3.25581V12.4419ZM3.25581 13.7442H3.90698V14.3953H3.25581V13.7442ZM3.25581 13.093H3.90698V13.7442H3.25581V13.093ZM7.81395 7.88372H8.46512V8.53488H7.81395V7.88372ZM7.81395 7.23256H8.46512V7.88372H7.81395V7.23256ZM4.55814 14.3953H5.2093V15.0465H4.55814V14.3953ZM3.90698 14.3953H4.55814V15.0465H3.90698V14.3953ZM5.2093 15.0465H5.86046V15.6977H5.2093V15.0465ZM11.7209 2.67442H12.3721V3.32558H11.7209V2.67442ZM13.6744 0.720931H14.3256V1.37209H13.6744V0.720931ZM13.0233 1.37209H13.6744V2.02326H13.0233V1.37209ZM12.3721 2.02326H13.0233V2.67442H12.3721V2.02326ZM7.81395 2.67442H8.46512V3.32558H7.81395V2.67442ZM3.25581 3.97674H3.90698V4.62791H3.25581V3.97674ZM2.60465 3.97674H3.25581V4.62791H2.60465V3.97674ZM3.90698 4.62791H4.55814V5.27907H3.90698V4.62791ZM3.90698 5.27907H4.55814V5.93023H3.90698V5.27907ZM4.55814 5.27907H5.2093V5.93023H4.55814V5.27907ZM4.55814 4.62791H5.2093V5.27907H4.55814V4.62791ZM5.2093 5.93023H5.86046V6.5814H5.2093V5.93023ZM6.51163 6.5814H7.16279V7.23256H6.51163V6.5814ZM5.86046 5.93023H6.51163V6.5814H5.86046V5.93023ZM6.51163 5.93023H7.16279V6.5814H6.51163V5.93023ZM9.11628 8.53488H9.76744V9.18605H9.11628V8.53488ZM9.76744 8.53488H10.4186V9.18605H9.76744V8.53488ZM10.4186 9.18605H11.0698V9.83721H10.4186V9.18605ZM10.4186 8.53488H11.0698V9.18605H10.4186V8.53488ZM11.7209 9.83721H12.3721V10.4884H11.7209V9.83721ZM7.81395 15.0465H8.46512V15.6977H7.81395V15.0465ZM7.81395 15.6977H8.46512V16.3488H7.81395V15.6977ZM11.0698 15.0465H11.7209V15.6977H11.0698V15.0465ZM11.7209 14.3953H12.3721V15.0465H11.7209V14.3953ZM12.3721 13.7442H13.0233V14.3953H12.3721V13.7442ZM13.0233 13.093H13.6744V13.7442H13.0233V13.093ZM13.6744 12.4419H14.3256V13.093H13.6744V12.4419ZM13.0233 13.7442H13.6744V14.3953H13.0233V13.7442ZM12.3721 14.3953H13.0233V15.0465H12.3721V14.3953ZM11.7209 15.0465H12.3721V15.6977H11.7209V15.0465ZM1.95349 3.32558H2.60465V3.97674H1.95349V3.32558ZM10.4186 15.6977H11.0698V16.3488H10.4186V15.6977ZM5.2093 8.53488H5.86046V9.18605H5.2093V8.53488ZM3.90698 7.88372H4.55814V8.53488H3.90698V7.88372ZM1.95349 6.5814H2.60465V7.23256H1.95349V6.5814ZM2.60465 4.62791H3.25581V5.27907H2.60465V4.62791ZM2.60465 5.27907H3.25581V5.93023H2.60465V5.27907ZM3.25581 5.27907H3.90698V5.93023H3.25581V5.27907ZM3.90698 5.93023H4.55814V6.5814H3.90698V5.93023ZM4.55814 5.93023H5.2093V6.5814H4.55814V5.93023ZM7.16279 7.23256H7.81395V7.88372H7.16279V7.23256ZM6.51163 7.23256H7.16279V7.88372H6.51163V7.23256ZM5.86046 6.5814H6.51163V7.23256H5.86046V6.5814ZM5.2093 6.5814H5.86046V7.23256H5.2093V6.5814ZM2.60465 7.23256H3.25581V7.88372H2.60465V7.23256ZM3.25581 14.3953H3.90698V15.0465H3.25581V14.3953ZM4.55814 15.0465H5.2093V15.6977H4.55814V15.0465ZM5.86046 15.6977H6.51163V16.3488H5.86046V15.6977ZM2.60465 14.3953H3.25581V15.0465H2.60465V14.3953ZM3.90698 15.0465H4.55814V15.6977H3.90698V15.0465ZM5.2093 15.6977H5.86046V16.3488H5.2093V15.6977ZM5.2093 12.4419H5.86046V13.093H5.2093V12.4419ZM6.51163 13.093H7.16279V13.7442H6.51163V13.093ZM6.51163 13.7442H7.16279V14.3953H6.51163V13.7442ZM7.81395 14.3953H8.46512V15.0465H7.81395V14.3953ZM7.81395 13.7442H8.46512V14.3953H7.81395V13.7442ZM8.46512 14.3953H9.11628V15.0465H8.46512V14.3953ZM9.11628 14.3953H9.76744V15.0465H9.11628V14.3953ZM5.86046 9.18605H6.51163V9.83721H5.86046V9.18605ZM5.2093 9.18605H5.86046V9.83721H5.2093V9.18605ZM3.90698 8.53488H4.55814V9.18605H3.90698V8.53488ZM4.55814 8.53488H5.2093V9.18605H4.55814V8.53488ZM3.25581 7.88372H3.90698V8.53488H3.25581V7.88372ZM2.60465 7.88372H3.25581V8.53488H2.60465V7.88372ZM1.95349 7.23256H2.60465V7.88372H1.95349V7.23256ZM8.46512 3.32558H9.11628V3.97674H8.46512V3.32558ZM7.16279 2.67442H7.81395V3.32558H7.16279V2.67442ZM5.86046 2.02326H6.51163V2.67442H5.86046V2.02326ZM4.55814 3.97674H5.2093V4.62791H4.55814V3.97674ZM5.2093 4.62791H5.86046V5.27907H5.2093V4.62791ZM6.51163 16.3488H7.16279V17H6.51163V16.3488ZM7.16279 16.3488H7.81395V17H7.16279V16.3488ZM7.81395 16.3488H8.46512V17H7.81395V16.3488ZM8.46512 16.3488H9.11628V17H8.46512V16.3488ZM9.11628 16.3488H9.76744V17H9.11628V16.3488ZM0 15.6977H0.651163V16.3488H0V15.6977ZM0 16.3488H0.651163V17H0V16.3488ZM8.46512 0.720931H9.11628V1.37209H8.46512V0.720931ZM9.76744 1.37209H10.4186V2.02326H9.76744V1.37209ZM11.0698 2.67442H11.7209V3.32558H11.0698V2.67442ZM11.0698 2.02326H11.7209V2.67442H11.0698V2.02326ZM6.51163 5.27907H7.16279V5.93023H6.51163V5.27907ZM7.81395 5.93023H8.46512V6.5814H7.81395V5.93023ZM9.11628 6.5814H9.76744V7.23256H9.11628V6.5814ZM10.4186 7.23256H11.0698V7.88372H10.4186V7.23256ZM11.7209 7.88372H12.3721V8.53488H11.7209V7.88372ZM13.0233 8.53488H13.6744V9.18605H13.0233V8.53488ZM13.6744 9.18605H14.3256V9.83721H13.6744V9.18605ZM13.0233 11.1395H13.6744V11.7907H13.0233V11.1395ZM13.0233 11.7907H13.6744V12.4419H13.0233V11.7907ZM12.3721 11.7907H13.0233V12.4419H12.3721V11.7907ZM3.25581 5.93023H3.90698V6.5814H3.25581V5.93023ZM2.60465 5.93023H3.25581V6.5814H2.60465V5.93023ZM2.60465 6.5814H3.25581V7.23256H2.60465V6.5814ZM11.0698 15.6977H11.7209V16.3488H11.0698V15.6977ZM9.76744 16.3488H10.4186V17H9.76744V16.3488ZM11.0698 14.3953H11.7209V15.0465H11.0698V14.3953ZM11.7209 2.02326H12.3721V2.67442H11.7209V2.02326ZM9.11628 3.97674H9.76744V4.62791H9.11628V3.97674ZM7.81395 3.32558H8.46512V3.97674H7.81395V3.32558ZM6.51163 2.67442H7.16279V3.32558H6.51163V2.67442ZM5.2093 2.02326H5.86046V2.67442H5.2093V2.02326ZM4.55814 2.02326H5.2093V2.67442H4.55814V2.02326ZM19.829 16.3488H20.4802V17H19.829V16.3488ZM20.4802 16.3488H21.1314V17H20.4802V16.3488ZM19.1779 15.6977H19.829V16.3488H19.1779V15.6977ZM19.829 15.6977H20.4802V16.3488H19.829V15.6977ZM20.4802 15.6977H21.1314V16.3488H20.4802V15.6977ZM21.1314 15.6977H21.7825V16.3488H21.1314V15.6977ZM18.5267 15.0465H19.1779V15.6977H18.5267V15.0465ZM19.1779 15.0465H19.829V15.6977H19.1779V15.0465ZM19.1779 14.3953H19.829V15.0465H19.1779V14.3953ZM19.829 14.3953H20.4802V15.0465H19.829V14.3953ZM19.829 15.0465H20.4802V15.6977H19.829V15.0465ZM20.4802 15.0465H21.1314V15.6977H20.4802V15.0465ZM21.1314 15.0465H21.7825V15.6977H21.1314V15.0465ZM21.1314 14.3953H21.7825V15.0465H21.1314V14.3953ZM20.4802 14.3953H21.1314V15.0465H20.4802V14.3953ZM19.829 13.7442H20.4802V14.3953H19.829V13.7442ZM20.4802 13.7442H21.1314V14.3953H20.4802V13.7442ZM21.1314 13.7442H21.7825V14.3953H21.1314V13.7442ZM21.1314 13.093H21.7825V13.7442H21.1314V13.093ZM20.4802 13.093H21.1314V13.7442H20.4802V13.093ZM19.829 13.093H20.4802V13.7442H19.829V13.093ZM19.829 12.4419H20.4802V13.093H19.829V12.4419ZM19.829 11.7907H20.4802V12.4419H19.829V11.7907ZM19.829 11.1395H20.4802V11.7907H19.829V11.1395ZM19.829 10.4884H20.4802V11.1395H19.829V10.4884ZM19.829 9.83721H20.4802V10.4884H19.829V9.83721ZM20.4802 9.83721H21.1314V10.4884H20.4802V9.83721ZM21.1314 9.83721H21.7825V10.4884H21.1314V9.83721ZM21.1314 10.4884H21.7825V11.1395H21.1314V10.4884ZM21.1314 11.1395H21.7825V11.7907H21.1314V11.1395ZM21.1314 11.7907H21.7825V12.4419H21.1314V11.7907ZM20.4802 11.7907H21.1314V12.4419H20.4802V11.7907ZM20.4802 12.4419H21.1314V13.093H20.4802V12.4419ZM20.4802 11.1395H21.1314V11.7907H20.4802V11.1395ZM20.4802 10.4884H21.1314V11.1395H20.4802V10.4884ZM21.1314 12.4419H21.7825V13.093H21.1314V12.4419ZM21.1314 9.18605H21.7825V9.83721H21.1314V9.18605ZM21.1314 8.53488H21.7825V9.18605H21.1314V8.53488ZM21.1314 7.88372H21.7825V8.53488H21.1314V7.88372ZM21.1314 7.23256H21.7825V7.88372H21.1314V7.23256ZM21.1314 6.5814H21.7825V7.23256H21.1314V6.5814ZM19.829 6.5814H20.4802V7.23256H19.829V6.5814ZM20.4802 7.23256H21.1314V7.88372H20.4802V7.23256ZM20.4802 7.88372H21.1314V8.53488H20.4802V7.88372ZM20.4802 8.53488H21.1314V9.18605H20.4802V8.53488ZM20.4802 9.18605H21.1314V9.83721H20.4802V9.18605ZM19.829 9.18605H20.4802V9.83721H19.829V9.18605ZM19.829 8.53488H20.4802V9.18605H19.829V8.53488ZM19.829 7.88372H20.4802V8.53488H19.829V7.88372ZM19.829 7.23256H20.4802V7.88372H19.829V7.23256ZM20.4802 6.5814H21.1314V7.23256H20.4802V6.5814ZM19.1779 13.7442H19.829V14.3953H19.1779V13.7442ZM19.1779 13.093H19.829V13.7442H19.1779V13.093ZM19.1779 12.4419H19.829V13.093H19.1779V12.4419ZM19.1779 11.7907H19.829V12.4419H19.1779V11.7907ZM19.1779 11.1395H19.829V11.7907H19.1779V11.1395ZM19.1779 10.4884H19.829V11.1395H19.1779V10.4884ZM19.1779 9.83721H19.829V10.4884H19.1779V9.83721ZM19.1779 9.18605H19.829V9.83721H19.1779V9.18605ZM19.1779 8.53488H19.829V9.18605H19.1779V8.53488ZM19.1779 7.88372H19.829V8.53488H19.1779V7.88372ZM19.1779 6.5814H19.829V7.23256H19.1779V6.5814ZM19.1779 7.23256H19.829V7.88372H19.1779V7.23256ZM22.4337 14.3953H23.0848V15.0465H22.4337V14.3953ZM19.829 5.93023H20.4802V6.5814H19.829V5.93023ZM20.4802 5.93023H21.1314V6.5814H20.4802V5.93023ZM19.1779 3.32558H19.829V3.97674H19.1779V3.32558ZM19.829 3.32558H20.4802V3.97674H19.829V3.32558ZM20.4802 3.32558H21.1314V3.97674H20.4802V3.32558ZM21.1314 3.32558H21.7825V3.97674H21.1314V3.32558ZM21.1314 2.67442H21.7825V3.32558H21.1314V2.67442ZM21.1314 2.02326H21.7825V2.67442H21.1314V2.02326ZM21.1314 1.37209H21.7825V2.02326H21.1314V1.37209ZM20.4802 1.37209H21.1314V2.02326H20.4802V1.37209ZM19.829 1.37209H20.4802V2.02326H19.829V1.37209ZM19.1779 1.37209H19.829V2.02326H19.1779V1.37209ZM19.1779 2.02326H19.829V2.67442H19.1779V2.02326ZM19.1779 2.67442H19.829V3.32558H19.1779V2.67442ZM19.829 2.67442H20.4802V3.32558H19.829V2.67442ZM20.4802 2.67442H21.1314V3.32558H20.4802V2.67442ZM20.4802 2.02326H21.1314V2.67442H20.4802V2.02326ZM19.829 2.02326H20.4802V2.67442H19.829V2.02326ZM21.7825 15.0465H22.4337V15.6977H21.7825V15.0465ZM18.5267 7.23256H19.1779V7.88372H18.5267V7.23256ZM17.8755 7.23256H18.5267V7.88372H17.8755V7.23256ZM17.8755 7.88372H18.5267V8.53488H17.8755V7.88372ZM18.5267 7.88372H19.1779V8.53488H18.5267V7.88372ZM21.7825 7.23256H22.4337V7.88372H21.7825V7.23256ZM22.4337 7.23256H23.0848V7.88372H22.4337V7.23256ZM22.4337 7.88372H23.0848V8.53488H22.4337V7.88372ZM21.7825 7.88372H22.4337V8.53488H21.7825V7.88372ZM17.8755 14.3953H18.5267V15.0465H17.8755V14.3953ZM18.5267 14.3953H19.1779V15.0465H18.5267V14.3953ZM21.7825 14.3953H22.4337V15.0465H21.7825V14.3953ZM17.8755 15.0465H18.5267V15.6977H17.8755V15.0465ZM19.1779 16.3488H19.829V17H19.1779V16.3488ZM28.5768 16.3488H29.228V17H28.5768V16.3488ZM29.228 16.3488H29.8792V17H29.228V16.3488ZM27.9257 15.6977H28.5768V16.3488H27.9257V15.6977ZM28.5768 15.6977H29.228V16.3488H28.5768V15.6977ZM29.228 15.6977H29.8792V16.3488H29.228V15.6977ZM29.8792 15.6977H30.5303V16.3488H29.8792V15.6977ZM27.2745 15.0465H27.9257V15.6977H27.2745V15.0465ZM27.9257 15.0465H28.5768V15.6977H27.9257V15.0465ZM27.9257 14.3953H28.5768V15.0465H27.9257V14.3953ZM28.5768 14.3953H29.228V15.0465H28.5768V14.3953ZM28.5768 15.0465H29.228V15.6977H28.5768V15.0465ZM29.228 15.0465H29.8792V15.6977H29.228V15.0465ZM29.8792 15.0465H30.5303V15.6977H29.8792V15.0465ZM29.8792 14.3953H30.5303V15.0465H29.8792V14.3953ZM30.5303 15.0465H31.1815V15.6977H30.5303V15.0465ZM29.228 14.3953H29.8792V15.0465H29.228V14.3953ZM28.5768 13.7442H29.228V14.3953H28.5768V13.7442ZM29.228 13.7442H29.8792V14.3953H29.228V13.7442ZM29.8792 13.7442H30.5303V14.3953H29.8792V13.7442ZM29.8792 13.093H30.5303V13.7442H29.8792V13.093ZM29.228 13.093H29.8792V13.7442H29.228V13.093ZM28.5768 13.093H29.228V13.7442H28.5768V13.093ZM28.5768 12.4419H29.228V13.093H28.5768V12.4419ZM28.5768 11.7907H29.228V12.4419H28.5768V11.7907ZM28.5768 11.1395H29.228V11.7907H28.5768V11.1395ZM28.5768 10.4884H29.228V11.1395H28.5768V10.4884ZM28.5768 9.83721H29.228V10.4884H28.5768V9.83721ZM29.228 9.83721H29.8792V10.4884H29.228V9.83721ZM29.8792 9.83721H30.5303V10.4884H29.8792V9.83721ZM29.8792 10.4884H30.5303V11.1395H29.8792V10.4884ZM29.8792 11.1395H30.5303V11.7907H29.8792V11.1395ZM29.8792 11.7907H30.5303V12.4419H29.8792V11.7907ZM29.228 11.7907H29.8792V12.4419H29.228V11.7907ZM29.228 12.4419H29.8792V13.093H29.228V12.4419ZM29.228 11.1395H29.8792V11.7907H29.228V11.1395ZM29.228 10.4884H29.8792V11.1395H29.228V10.4884ZM29.8792 12.4419H30.5303V13.093H29.8792V12.4419ZM29.8792 9.18605H30.5303V9.83721H29.8792V9.18605ZM29.8792 8.53488H30.5303V9.18605H29.8792V8.53488ZM29.8792 7.88372H30.5303V8.53488H29.8792V7.88372ZM29.8792 7.23256H30.5303V7.88372H29.8792V7.23256ZM29.8792 6.5814H30.5303V7.23256H29.8792V6.5814ZM29.8792 5.93023H30.5303V6.5814H29.8792V5.93023ZM29.8792 4.62791H30.5303V5.27907H29.8792V4.62791ZM29.8792 3.97674H30.5303V4.62791H29.8792V3.97674ZM29.8792 3.32558H30.5303V3.97674H29.8792V3.32558ZM29.8792 2.67442H30.5303V3.32558H29.8792V2.67442ZM29.8792 2.02326H30.5303V2.67442H29.8792V2.02326ZM29.8792 1.37209H30.5303V2.02326H29.8792V1.37209ZM29.8792 0.720931H30.5303V1.37209H29.8792V0.720931ZM28.5768 2.02326H29.228V2.67442H28.5768V2.02326ZM28.5768 2.67442H29.228V3.32558H28.5768V2.67442ZM28.5768 3.32558H29.228V3.97674H28.5768V3.32558ZM28.5768 3.97674H29.228V4.62791H28.5768V3.97674ZM28.5768 4.62791H29.228V5.27907H28.5768V4.62791ZM28.5768 5.93023H29.228V6.5814H28.5768V5.93023ZM28.5768 6.5814H29.228V7.23256H28.5768V6.5814ZM29.228 7.23256H29.8792V7.88372H29.228V7.23256ZM29.228 7.88372H29.8792V8.53488H29.228V7.88372ZM29.228 8.53488H29.8792V9.18605H29.228V8.53488ZM29.228 9.18605H29.8792V9.83721H29.228V9.18605ZM28.5768 9.18605H29.228V9.83721H28.5768V9.18605ZM28.5768 8.53488H29.228V9.18605H28.5768V8.53488ZM28.5768 7.88372H29.228V8.53488H28.5768V7.88372ZM28.5768 7.23256H29.228V7.88372H28.5768V7.23256ZM29.228 6.5814H29.8792V7.23256H29.228V6.5814ZM29.228 5.93023H29.8792V6.5814H29.228V5.93023ZM29.228 4.62791H29.8792V5.27907H29.228V4.62791ZM29.228 3.97674H29.8792V4.62791H29.228V3.97674ZM29.228 3.32558H29.8792V3.97674H29.228V3.32558ZM29.228 2.67442H29.8792V3.32558H29.228V2.67442ZM29.228 2.02326H29.8792V2.67442H29.228V2.02326ZM29.228 1.37209H29.8792V2.02326H29.228V1.37209ZM27.9257 13.7442H28.5768V14.3953H27.9257V13.7442ZM27.9257 13.093H28.5768V13.7442H27.9257V13.093ZM27.9257 12.4419H28.5768V13.093H27.9257V12.4419ZM27.9257 11.7907H28.5768V12.4419H27.9257V11.7907ZM27.9257 11.1395H28.5768V11.7907H27.9257V11.1395ZM27.9257 10.4884H28.5768V11.1395H27.9257V10.4884ZM27.9257 9.83721H28.5768V10.4884H27.9257V9.83721ZM27.9257 9.18605H28.5768V9.83721H27.9257V9.18605ZM27.9257 8.53488H28.5768V9.18605H27.9257V8.53488ZM27.9257 7.88372H28.5768V8.53488H27.9257V7.88372ZM27.9257 6.5814H28.5768V7.23256H27.9257V6.5814ZM27.9257 4.62791H28.5768V5.27907H27.9257V4.62791ZM27.9257 3.97674H28.5768V4.62791H27.9257V3.97674ZM27.9257 3.32558H28.5768V3.97674H27.9257V3.32558ZM27.9257 5.93023H28.5768V6.5814H27.9257V5.93023ZM27.9257 7.23256H28.5768V7.88372H27.9257V7.23256ZM27.9257 2.67442H28.5768V3.32558H27.9257V2.67442ZM27.9257 5.27907H28.5768V5.93023H27.9257V5.27907ZM28.5768 5.27907H29.228V5.93023H28.5768V5.27907ZM29.228 5.27907H29.8792V5.93023H29.228V5.27907ZM29.8792 5.27907H30.5303V5.93023H29.8792V5.27907ZM31.1815 14.3953H31.8327V15.0465H31.1815V14.3953ZM26.6233 14.3953H27.2745V15.0465H26.6233V14.3953ZM27.2745 14.3953H27.9257V15.0465H27.2745V14.3953ZM30.5303 14.3953H31.1815V15.0465H30.5303V14.3953ZM27.9257 16.3488H28.5768V17H27.9257V16.3488ZM26.6233 15.0465H27.2745V15.6977H26.6233V15.0465ZM37.3247 11.1395H37.9758V11.7907H37.3247V11.1395ZM37.3247 11.7907H37.9758V12.4419H37.3247V11.7907ZM37.3247 12.4419H37.9758V13.093H37.3247V12.4419ZM37.3247 13.093H37.9758V13.7442H37.3247V13.093ZM37.3247 13.7442H37.9758V14.3953H37.3247V13.7442ZM37.9758 13.7442H38.627V14.3953H37.9758V13.7442ZM38.627 13.7442H39.2781V14.3953H38.627V13.7442ZM38.627 13.093H39.2781V13.7442H38.627V13.093ZM39.2781 13.093H39.9293V13.7442H39.2781V13.093ZM39.2781 12.4419H39.9293V13.093H39.2781V12.4419ZM39.2781 11.1395H39.9293V11.7907H39.2781V11.1395ZM39.2781 10.4884H39.9293V11.1395H39.2781V10.4884ZM38.627 10.4884H39.2781V11.1395H38.627V10.4884ZM38.627 11.1395H39.2781V11.7907H38.627V11.1395ZM38.627 11.7907H39.2781V12.4419H38.627V11.7907ZM38.627 12.4419H39.2781V13.093H38.627V12.4419ZM39.2781 11.7907H39.9293V12.4419H39.2781V11.7907ZM37.9758 11.7907H38.627V12.4419H37.9758V11.7907ZM37.9758 11.1395H38.627V11.7907H37.9758V11.1395ZM37.9758 10.4884H38.627V11.1395H37.9758V10.4884ZM37.9758 12.4419H38.627V13.093H37.9758V12.4419ZM37.9758 13.093H38.627V13.7442H37.9758V13.093ZM36.6735 15.0465H37.3247V15.6977H36.6735V15.0465ZM36.0223 15.0465H36.6735V15.6977H36.0223V15.0465ZM36.0223 14.3953H36.6735V15.0465H36.0223V14.3953ZM36.6735 14.3953H37.3247V15.0465H36.6735V14.3953ZM37.3247 14.3953H37.9758V15.0465H37.3247V14.3953ZM37.3247 15.0465H37.9758V15.6977H37.3247V15.0465ZM37.9758 15.0465H38.627V15.6977H37.9758V15.0465ZM38.627 15.0465H39.2781V15.6977H38.627V15.0465ZM39.2781 15.0465H39.9293V15.6977H39.2781V15.0465ZM39.2781 14.3953H39.9293V15.0465H39.2781V14.3953ZM39.2781 13.7442H39.9293V14.3953H39.2781V13.7442ZM38.627 14.3953H39.2781V15.0465H38.627V14.3953ZM37.9758 14.3953H38.627V15.0465H37.9758V14.3953ZM38.627 15.6977H39.2781V16.3488H38.627V15.6977ZM38.627 16.3488H39.2781V17H38.627V16.3488ZM39.2781 16.3488H39.9293V17H39.2781V16.3488ZM39.2781 15.6977H39.9293V16.3488H39.2781V15.6977ZM39.9293 15.0465H40.5805V15.6977H39.9293V15.0465ZM39.9293 14.3953H40.5805V15.0465H39.9293V14.3953ZM40.5805 14.3953H41.2316V15.0465H40.5805V14.3953ZM40.5805 15.0465H41.2316V15.6977H40.5805V15.0465ZM40.5805 15.6977H41.2316V16.3488H40.5805V15.6977ZM40.5805 16.3488H41.2316V17H40.5805V16.3488ZM39.9293 16.3488H40.5805V17H39.9293V16.3488ZM39.9293 15.6977H40.5805V16.3488H39.9293V15.6977ZM41.2316 14.3953H41.8828V15.0465H41.2316V14.3953ZM41.8828 14.3953H42.534V15.0465H41.8828V14.3953ZM41.8828 15.0465H42.534V15.6977H41.8828V15.0465ZM41.2316 15.0465H41.8828V15.6977H41.2316V15.0465ZM42.534 14.3953H43.1851V15.0465H42.534V14.3953ZM43.1851 14.3953H43.8363V15.0465H43.1851V14.3953ZM42.534 15.0465H43.1851V15.6977H42.534V15.0465ZM42.534 13.7442H43.1851V14.3953H42.534V13.7442ZM42.534 13.093H43.1851V13.7442H42.534V13.093ZM43.1851 13.093H43.8363V13.7442H43.1851V13.093ZM43.1851 13.7442H43.8363V14.3953H43.1851V13.7442ZM43.8363 13.093H44.4874V13.7442H43.8363V13.093ZM44.4874 12.4419H45.1386V13.093H44.4874V12.4419ZM44.4874 11.7907H45.1386V12.4419H44.4874V11.7907ZM44.4874 11.1395H45.1386V11.7907H44.4874V11.1395ZM43.8363 11.1395H44.4874V11.7907H43.8363V11.1395ZM43.1851 11.1395H43.8363V11.7907H43.1851V11.1395ZM43.1851 11.7907H43.8363V12.4419H43.1851V11.7907ZM42.534 11.7907H43.1851V12.4419H42.534V11.7907ZM42.534 12.4419H43.1851V13.093H42.534V12.4419ZM43.1851 12.4419H43.8363V13.093H43.1851V12.4419ZM43.8363 12.4419H44.4874V13.093H43.8363V12.4419ZM43.8363 11.7907H44.4874V12.4419H43.8363V11.7907ZM42.534 11.1395H43.1851V11.7907H42.534V11.1395ZM43.1851 10.4884H43.8363V11.1395H43.1851V10.4884ZM44.4874 10.4884H45.1386V11.1395H44.4874V10.4884ZM43.8363 10.4884H44.4874V11.1395H43.8363V10.4884ZM37.9758 15.6977H38.627V16.3488H37.9758V15.6977ZM41.2316 15.6977H41.8828V16.3488H41.2316V15.6977ZM43.8363 13.7442H44.4874V14.3953H43.8363V13.7442ZM44.4874 13.093H45.1386V13.7442H44.4874V13.093ZM41.8828 15.6977H42.534V16.3488H41.8828V15.6977ZM41.2316 16.3488H41.8828V17H41.2316V16.3488ZM42.534 8.53488H43.1851V9.18605H42.534V8.53488ZM43.1851 8.53488H43.8363V9.18605H43.1851V8.53488ZM43.8363 8.53488H44.4874V9.18605H43.8363V8.53488ZM44.4874 8.53488H45.1386V9.18605H44.4874V8.53488ZM44.4874 9.18605H45.1386V9.83721H44.4874V9.18605ZM44.4874 9.83721H45.1386V10.4884H44.4874V9.83721ZM43.8363 9.83721H44.4874V10.4884H43.8363V9.83721ZM43.1851 9.18605H43.8363V9.83721H43.1851V9.18605ZM43.8363 9.18605H44.4874V9.83721H43.8363V9.18605ZM39.2781 9.83721H39.9293V10.4884H39.2781V9.83721ZM38.627 9.83721H39.2781V10.4884H38.627V9.83721ZM43.8363 7.23256H44.4874V7.88372H43.8363V7.23256ZM43.1851 7.23256H43.8363V7.88372H43.1851V7.23256ZM42.534 7.23256H43.1851V7.88372H42.534V7.23256ZM41.8828 7.23256H42.534V7.88372H41.8828V7.23256ZM41.8828 7.88372H42.534V8.53488H41.8828V7.88372ZM42.534 7.88372H43.1851V8.53488H42.534V7.88372ZM43.1851 7.88372H43.8363V8.53488H43.1851V7.88372ZM43.8363 7.88372H44.4874V8.53488H43.8363V7.88372ZM44.4874 7.88372H45.1386V8.53488H44.4874V7.88372ZM42.534 6.5814H43.1851V7.23256H42.534V6.5814ZM43.1851 6.5814H43.8363V7.23256H43.1851V6.5814ZM37.3247 10.4884H37.9758V11.1395H37.3247V10.4884ZM42.534 10.4884H43.1851V11.1395H42.534V10.4884ZM45.1386 7.88372H45.7898V8.53488H45.1386V7.88372ZM45.7898 7.88372H46.4409V8.53488H45.7898V7.88372ZM45.7898 8.53488H46.4409V9.18605H45.7898V8.53488ZM45.1386 8.53488H45.7898V9.18605H45.1386V8.53488ZM43.1851 9.83721H43.8363V10.4884H43.1851V9.83721ZM37.9758 9.83721H38.627V10.4884H37.9758V9.83721ZM37.3247 9.83721H37.9758V10.4884H37.3247V9.83721ZM42.534 9.83721H43.1851V10.4884H42.534V9.83721ZM42.534 9.18605H43.1851V9.83721H42.534V9.18605ZM41.2316 7.88372H41.8828V8.53488H41.2316V7.88372ZM41.8828 8.53488H42.534V9.18605H41.8828V8.53488ZM41.2316 7.23256H41.8828V7.88372H41.2316V7.23256ZM41.8828 6.5814H42.534V7.23256H41.8828V6.5814ZM41.2316 6.5814H41.8828V7.23256H41.2316V6.5814ZM41.8828 5.93023H42.534V6.5814H41.8828V5.93023ZM42.534 5.93023H43.1851V6.5814H42.534V5.93023ZM40.5805 7.23256H41.2316V7.88372H40.5805V7.23256ZM37.3247 8.53488H37.9758V9.18605H37.3247V8.53488ZM37.9758 8.53488H38.627V9.18605H37.9758V8.53488ZM38.627 8.53488H39.2781V9.18605H38.627V8.53488ZM39.2781 8.53488H39.9293V9.18605H39.2781V8.53488ZM39.2781 9.18605H39.9293V9.83721H39.2781V9.18605ZM37.9758 9.18605H38.627V9.83721H37.9758V9.18605ZM38.627 9.18605H39.2781V9.83721H38.627V9.18605ZM38.627 7.23256H39.2781V7.88372H38.627V7.23256ZM37.9758 7.23256H38.627V7.88372H37.9758V7.23256ZM37.3247 7.23256H37.9758V7.88372H37.3247V7.23256ZM36.6735 7.23256H37.3247V7.88372H36.6735V7.23256ZM36.6735 7.88372H37.3247V8.53488H36.6735V7.88372ZM37.3247 7.88372H37.9758V8.53488H37.3247V7.88372ZM37.9758 7.88372H38.627V8.53488H37.9758V7.88372ZM38.627 7.88372H39.2781V8.53488H38.627V7.88372ZM39.2781 7.88372H39.9293V8.53488H39.2781V7.88372ZM37.3247 6.5814H37.9758V7.23256H37.3247V6.5814ZM37.9758 6.5814H38.627V7.23256H37.9758V6.5814ZM37.3247 9.18605H37.9758V9.83721H37.3247V9.18605ZM36.0223 7.88372H36.6735V8.53488H36.0223V7.88372ZM36.6735 8.53488H37.3247V9.18605H36.6735V8.53488ZM36.0223 7.23256H36.6735V7.88372H36.0223V7.23256ZM36.6735 6.5814H37.3247V7.23256H36.6735V6.5814ZM36.0223 6.5814H36.6735V7.23256H36.0223V6.5814ZM36.6735 5.93023H37.3247V6.5814H36.6735V5.93023ZM37.3247 5.93023H37.9758V6.5814H37.3247V5.93023ZM35.3712 7.23256H36.0223V7.88372H35.3712V7.23256ZM51.924 8.53488H52.5752V9.18605H51.924V8.53488ZM52.5752 8.53488H53.2264V9.18605H52.5752V8.53488ZM52.5752 9.18605H53.2264V9.83721H52.5752V9.18605ZM53.2264 8.53488H53.8775V9.18605H53.2264V8.53488ZM51.2729 8.53488H51.924V9.18605H51.2729V8.53488ZM51.2729 9.18605H51.924V9.83721H51.2729V9.18605ZM51.2729 10.4884H51.924V11.1395H51.2729V10.4884ZM51.2729 11.1395H51.924V11.7907H51.2729V11.1395ZM51.2729 11.7907H51.924V12.4419H51.2729V11.7907ZM51.2729 12.4419H51.924V13.093H51.2729V12.4419ZM51.2729 13.093H51.924V13.7442H51.2729V13.093ZM51.2729 13.7442H51.924V14.3953H51.2729V13.7442ZM51.924 13.7442H52.5752V14.3953H51.924V13.7442ZM52.5752 13.7442H53.2264V14.3953H52.5752V13.7442ZM52.5752 13.093H53.2264V13.7442H52.5752V13.093ZM53.2264 13.093H53.8775V13.7442H53.2264V13.093ZM53.2264 12.4419H53.8775V13.093H53.2264V12.4419ZM53.2264 11.1395H53.8775V11.7907H53.2264V11.1395ZM53.2264 10.4884H53.8775V11.1395H53.2264V10.4884ZM53.2264 9.83721H53.8775V10.4884H53.2264V9.83721ZM53.2264 9.18605H53.8775V9.83721H53.2264V9.18605ZM52.5752 9.83721H53.2264V10.4884H52.5752V9.83721ZM52.5752 10.4884H53.2264V11.1395H52.5752V10.4884ZM52.5752 11.1395H53.2264V11.7907H52.5752V11.1395ZM52.5752 11.7907H53.2264V12.4419H52.5752V11.7907ZM52.5752 12.4419H53.2264V13.093H52.5752V12.4419ZM53.2264 11.7907H53.8775V12.4419H53.2264V11.7907ZM51.924 11.7907H52.5752V12.4419H51.924V11.7907ZM51.924 11.1395H52.5752V11.7907H51.924V11.1395ZM51.924 10.4884H52.5752V11.1395H51.924V10.4884ZM51.924 9.83721H52.5752V10.4884H51.924V9.83721ZM51.924 9.18605H52.5752V9.83721H51.924V9.18605ZM51.2729 9.83721H51.924V10.4884H51.2729V9.83721ZM51.924 12.4419H52.5752V13.093H51.924V12.4419ZM51.924 13.093H52.5752V13.7442H51.924V13.093ZM50.6217 15.0465H51.2729V15.6977H50.6217V15.0465ZM49.9705 15.0465H50.6217V15.6977H49.9705V15.0465ZM49.9705 14.3953H50.6217V15.0465H49.9705V14.3953ZM50.6217 14.3953H51.2729V15.0465H50.6217V14.3953ZM51.2729 14.3953H51.924V15.0465H51.2729V14.3953ZM51.2729 15.0465H51.924V15.6977H51.2729V15.0465ZM51.924 15.0465H52.5752V15.6977H51.924V15.0465ZM52.5752 15.0465H53.2264V15.6977H52.5752V15.0465ZM53.2264 15.0465H53.8775V15.6977H53.2264V15.0465ZM53.2264 14.3953H53.8775V15.0465H53.2264V14.3953ZM53.2264 13.7442H53.8775V14.3953H53.2264V13.7442ZM52.5752 14.3953H53.2264V15.0465H52.5752V14.3953ZM51.924 14.3953H52.5752V15.0465H51.924V14.3953ZM52.5752 15.6977H53.2264V16.3488H52.5752V15.6977ZM52.5752 16.3488H53.2264V17H52.5752V16.3488ZM53.2264 16.3488H53.8775V17H53.2264V16.3488ZM53.2264 15.6977H53.8775V16.3488H53.2264V15.6977ZM53.8775 15.0465H54.5287V15.6977H53.8775V15.0465ZM53.8775 14.3953H54.5287V15.0465H53.8775V14.3953ZM54.5287 14.3953H55.1798V15.0465H54.5287V14.3953ZM54.5287 15.0465H55.1798V15.6977H54.5287V15.0465ZM54.5287 15.6977H55.1798V16.3488H54.5287V15.6977ZM54.5287 16.3488H55.1798V17H54.5287V16.3488ZM53.8775 16.3488H54.5287V17H53.8775V16.3488ZM53.8775 15.6977H54.5287V16.3488H53.8775V15.6977ZM55.1798 14.3953H55.831V15.0465H55.1798V14.3953ZM55.831 14.3953H56.4822V15.0465H55.831V14.3953ZM55.831 15.0465H56.4822V15.6977H55.831V15.0465ZM55.1798 15.0465H55.831V15.6977H55.1798V15.0465ZM56.4822 14.3953H57.1333V15.0465H56.4822V14.3953ZM57.1333 14.3953H57.7845V15.0465H57.1333V14.3953ZM56.4822 15.0465H57.1333V15.6977H56.4822V15.0465ZM56.4822 13.7442H57.1333V14.3953H56.4822V13.7442ZM56.4822 13.093H57.1333V13.7442H56.4822V13.093ZM57.1333 13.093H57.7845V13.7442H57.1333V13.093ZM57.1333 13.7442H57.7845V14.3953H57.1333V13.7442ZM57.7845 13.093H58.4357V13.7442H57.7845V13.093ZM58.4357 12.4419H59.0868V13.093H58.4357V12.4419ZM58.4357 11.7907H59.0868V12.4419H58.4357V11.7907ZM58.4357 11.1395H59.0868V11.7907H58.4357V11.1395ZM57.7845 11.1395H58.4357V11.7907H57.7845V11.1395ZM57.1333 11.1395H57.7845V11.7907H57.1333V11.1395ZM57.1333 11.7907H57.7845V12.4419H57.1333V11.7907ZM56.4822 11.7907H57.1333V12.4419H56.4822V11.7907ZM56.4822 12.4419H57.1333V13.093H56.4822V12.4419ZM57.1333 12.4419H57.7845V13.093H57.1333V12.4419ZM57.7845 12.4419H58.4357V13.093H57.7845V12.4419ZM57.7845 11.7907H58.4357V12.4419H57.7845V11.7907ZM56.4822 11.1395H57.1333V11.7907H56.4822V11.1395ZM56.4822 10.4884H57.1333V11.1395H56.4822V10.4884ZM57.1333 10.4884H57.7845V11.1395H57.1333V10.4884ZM57.1333 9.83721H57.7845V10.4884H57.1333V9.83721ZM57.7845 9.83721H58.4357V10.4884H57.7845V9.83721ZM58.4357 9.83721H59.0868V10.4884H58.4357V9.83721ZM58.4357 10.4884H59.0868V11.1395H58.4357V10.4884ZM57.7845 10.4884H58.4357V11.1395H57.7845V10.4884ZM56.4822 9.83721H57.1333V10.4884H56.4822V9.83721ZM56.4822 9.18605H57.1333V9.83721H56.4822V9.18605ZM57.1333 9.18605H57.7845V9.83721H57.1333V9.18605ZM57.1333 8.53488H57.7845V9.18605H57.1333V8.53488ZM57.7845 8.53488H58.4357V9.18605H57.7845V8.53488ZM58.4357 8.53488H59.0868V9.18605H58.4357V8.53488ZM58.4357 9.18605H59.0868V9.83721H58.4357V9.18605ZM57.7845 9.18605H58.4357V9.83721H57.7845V9.18605ZM56.4822 8.53488H57.1333V9.18605H56.4822V8.53488ZM53.8775 5.93023H54.5287V6.5814H53.8775V5.93023ZM53.8775 6.5814H54.5287V7.23256H53.8775V6.5814ZM54.5287 6.5814H55.1798V7.23256H54.5287V6.5814ZM54.5287 5.93023H55.1798V6.5814H54.5287V5.93023ZM53.2264 7.23256H53.8775V7.88372H53.2264V7.23256ZM52.5752 7.23256H53.2264V7.88372H52.5752V7.23256ZM53.2264 7.88372H53.8775V8.53488H53.2264V7.88372ZM52.5752 7.88372H53.2264V8.53488H52.5752V7.88372ZM55.1798 5.93023H55.831V6.5814H55.1798V5.93023ZM55.831 5.93023H56.4822V6.5814H55.831V5.93023ZM55.831 6.5814H56.4822V7.23256H55.831V6.5814ZM55.1798 6.5814H55.831V7.23256H55.1798V6.5814ZM56.4822 5.93023H57.1333V6.5814H56.4822V5.93023ZM57.1333 5.93023H57.7845V6.5814H57.1333V5.93023ZM57.1333 6.5814H57.7845V7.23256H57.1333V6.5814ZM56.4822 6.5814H57.1333V7.23256H56.4822V6.5814ZM59.0868 7.88372H59.738V8.53488H59.0868V7.88372ZM59.0868 7.23256H59.738V7.88372H59.0868V7.23256ZM59.738 7.23256H60.3891V7.88372H59.738V7.23256ZM59.738 7.88372H60.3891V8.53488H59.738V7.88372ZM58.4357 7.23256H59.0868V7.88372H58.4357V7.23256ZM57.7845 7.23256H58.4357V7.88372H57.7845V7.23256ZM57.1333 7.23256H57.7845V7.88372H57.1333V7.23256ZM56.4822 7.23256H57.1333V7.88372H56.4822V7.23256ZM57.1333 7.88372H57.7845V8.53488H57.1333V7.88372ZM57.7845 7.88372H58.4357V8.53488H57.7845V7.88372ZM58.4357 7.88372H59.0868V8.53488H58.4357V7.88372ZM56.4822 7.88372H57.1333V8.53488H56.4822V7.88372ZM51.924 15.6977H52.5752V16.3488H51.924V15.6977ZM57.7845 6.5814H58.4357V7.23256H57.7845V6.5814ZM51.924 7.88372H52.5752V8.53488H51.924V7.88372ZM55.1798 15.6977H55.831V16.3488H55.1798V15.6977ZM57.7845 13.7442H58.4357V14.3953H57.7845V13.7442ZM58.4357 13.093H59.0868V13.7442H58.4357V13.093ZM58.4357 13.7442H59.0868V14.3953H58.4357V13.7442ZM58.4357 14.3953H59.0868V15.0465H58.4357V14.3953ZM57.7845 14.3953H58.4357V15.0465H57.7845V14.3953ZM59.0868 14.3953H59.738V15.0465H59.0868V14.3953ZM59.738 14.3953H60.3891V15.0465H59.738V14.3953ZM59.738 15.0465H60.3891V15.6977H59.738V15.0465ZM59.0868 15.0465H59.738V15.6977H59.0868V15.0465ZM57.7845 15.0465H58.4357V15.6977H57.7845V15.0465ZM57.1333 15.0465H57.7845V15.6977H57.1333V15.0465ZM58.4357 15.0465H59.0868V15.6977H58.4357V15.0465ZM57.7845 15.6977H58.4357V16.3488H57.7845V15.6977ZM57.1333 15.6977H57.7845V16.3488H57.1333V15.6977ZM58.4357 15.6977H59.0868V16.3488H58.4357V15.6977ZM59.0868 15.6977H59.738V16.3488H59.0868V15.6977ZM58.4357 16.3488H59.0868V17H58.4357V16.3488ZM57.1333 16.3488H57.7845V17H57.1333V16.3488ZM57.7845 16.3488H58.4357V17H57.7845V16.3488ZM53.2264 6.5814H53.8775V7.23256H53.2264V6.5814ZM73.9962 0.720931H74.6474V1.37209H73.9962V0.720931ZM73.9962 1.37209H74.6474V2.02326H73.9962V1.37209ZM74.6474 1.37209H75.2986V2.02326H74.6474V1.37209ZM74.6474 2.02326H75.2986V2.67442H74.6474V2.02326ZM75.2986 2.02326H75.9497V2.67442H75.2986V2.02326ZM75.2986 2.67442H75.9497V3.32558H75.2986V2.67442ZM75.9497 2.67442H76.6009V3.32558H75.9497V2.67442ZM75.9497 2.02326H76.6009V2.67442H75.9497V2.02326ZM76.6009 2.02326H77.252V2.67442H76.6009V2.02326ZM76.6009 2.67442H77.252V3.32558H76.6009V2.67442ZM77.252 1.37209H77.9032V2.02326H77.252V1.37209ZM77.9032 2.02326H78.5544V2.67442H77.9032V2.02326ZM78.5544 2.02326H79.2055V2.67442H78.5544V2.02326ZM77.252 2.02326H77.9032V2.67442H77.252V2.02326ZM77.252 2.67442H77.9032V3.32558H77.252V2.67442ZM77.9032 2.67442H78.5544V3.32558H77.9032V2.67442ZM78.5544 2.67442H79.2055V3.32558H78.5544V2.67442ZM79.2055 2.67442H79.8567V3.32558H79.2055V2.67442ZM79.8567 2.67442H80.5079V3.32558H79.8567V2.67442ZM80.5079 2.67442H81.159V3.32558H80.5079V2.67442ZM81.159 2.67442H81.8102V3.32558H81.159V2.67442ZM81.8102 2.67442H82.4614V3.32558H81.8102V2.67442ZM82.4614 2.67442H83.1125V3.32558H82.4614V2.67442ZM83.1125 2.67442H83.7637V3.32558H83.1125V2.67442ZM83.7637 2.67442H84.4148V3.32558H83.7637V2.67442ZM84.4148 2.67442H85.066V3.32558H84.4148V2.67442ZM85.066 2.67442H85.7172V3.32558H85.066V2.67442ZM85.066 2.02326H85.7172V2.67442H85.066V2.02326ZM84.4148 2.02326H85.066V2.67442H84.4148V2.02326ZM83.7637 2.02326H84.4148V2.67442H83.7637V2.02326ZM83.1125 2.02326H83.7637V2.67442H83.1125V2.02326ZM81.8102 2.02326H82.4614V2.67442H81.8102V2.02326ZM81.159 2.02326H81.8102V2.67442H81.159V2.02326ZM80.5079 2.02326H81.159V2.67442H80.5079V2.02326ZM79.8567 2.02326H80.5079V2.67442H79.8567V2.02326ZM79.2055 2.02326H79.8567V2.67442H79.2055V2.02326ZM82.4614 2.02326H83.1125V2.67442H82.4614V2.02326ZM81.8102 1.37209H82.4614V2.02326H81.8102V1.37209ZM81.8102 0.720931H82.4614V1.37209H81.8102V0.720931ZM81.159 0.720931H81.8102V1.37209H81.159V0.720931ZM81.159 1.37209H81.8102V2.02326H81.159V1.37209ZM82.4614 0.720931H83.1125V1.37209H82.4614V0.720931ZM83.1125 0.720931H83.7637V1.37209H83.1125V0.720931ZM83.1125 1.37209H83.7637V2.02326H83.1125V1.37209ZM82.4614 1.37209H83.1125V2.02326H82.4614V1.37209ZM85.7172 2.02326H86.3683V2.67442H85.7172V2.02326ZM85.7172 2.67442H86.3683V3.32558H85.7172V2.67442ZM86.3683 2.67442H87.0195V3.32558H86.3683V2.67442ZM86.3683 2.02326H87.0195V2.67442H86.3683V2.02326ZM86.3683 1.37209H87.0195V2.02326H86.3683V1.37209ZM86.3683 0.720931H87.0195V1.37209H86.3683V0.720931ZM87.0195 0.720931H87.6707V1.37209H87.0195V0.720931ZM87.0195 1.37209H87.6707V2.02326H87.0195V1.37209ZM87.0195 2.02326H87.6707V2.67442H87.0195V2.02326ZM87.0195 2.67442H87.6707V3.32558H87.0195V2.67442ZM87.6707 2.67442H88.3218V3.32558H87.6707V2.67442ZM88.3218 2.67442H88.973V3.32558H88.3218V2.67442ZM88.3218 2.02326H88.973V2.67442H88.3218V2.02326ZM88.3218 1.37209H88.973V2.02326H88.3218V1.37209ZM88.3218 0.720931H88.973V1.37209H88.3218V0.720931ZM87.6707 0.720931H88.3218V1.37209H87.6707V0.720931ZM87.6707 1.37209H88.3218V2.02326H87.6707V1.37209ZM87.6707 2.02326H88.3218V2.67442H87.6707V2.02326ZM88.973 2.02326H89.6241V2.67442H88.973V2.02326ZM89.6241 2.02326H90.2753V2.67442H89.6241V2.02326ZM89.6241 2.67442H90.2753V3.32558H89.6241V2.67442ZM88.973 2.67442H89.6241V3.32558H88.973V2.67442ZM90.2753 2.02326H90.9265V2.67442H90.2753V2.02326ZM90.9265 2.02326H91.5776V2.67442H90.9265V2.02326ZM90.9265 2.67442H91.5776V3.32558H90.9265V2.67442ZM90.2753 2.67442H90.9265V3.32558H90.2753V2.67442ZM77.252 3.32558H77.9032V3.97674H77.252V3.32558ZM77.252 3.97674H77.9032V4.62791H77.252V3.97674ZM77.252 4.62791H77.9032V5.27907H77.252V4.62791ZM77.252 5.27907H77.9032V5.93023H77.252V5.27907ZM77.252 5.93023H77.9032V6.5814H77.252V5.93023ZM77.9032 5.93023H78.5544V6.5814H77.9032V5.93023ZM77.9032 5.27907H78.5544V5.93023H77.9032V5.27907ZM77.9032 4.62791H78.5544V5.27907H77.9032V4.62791ZM77.9032 3.97674H78.5544V4.62791H77.9032V3.97674ZM77.9032 3.32558H78.5544V3.97674H77.9032V3.32558ZM78.5544 3.32558H79.2055V3.97674H78.5544V3.32558ZM79.2055 3.32558H79.8567V3.97674H79.2055V3.32558ZM79.2055 3.97674H79.8567V4.62791H79.2055V3.97674ZM79.2055 4.62791H79.8567V5.27907H79.2055V4.62791ZM79.2055 5.27907H79.8567V5.93023H79.2055V5.27907ZM79.2055 5.93023H79.8567V6.5814H79.2055V5.93023ZM79.2055 6.5814H79.8567V7.23256H79.2055V6.5814ZM78.5544 6.5814H79.2055V7.23256H78.5544V6.5814ZM78.5544 5.93023H79.2055V6.5814H78.5544V5.93023ZM78.5544 5.27907H79.2055V5.93023H78.5544V5.27907ZM78.5544 4.62791H79.2055V5.27907H78.5544V4.62791ZM78.5544 3.97674H79.2055V4.62791H78.5544V3.97674ZM77.252 6.5814H77.9032V7.23256H77.252V6.5814ZM77.252 7.23256H77.9032V7.88372H77.252V7.23256ZM77.252 7.88372H77.9032V8.53488H77.252V7.88372ZM77.9032 7.88372H78.5544V8.53488H77.9032V7.88372ZM78.5544 7.88372H79.2055V8.53488H78.5544V7.88372ZM78.5544 7.23256H79.2055V7.88372H78.5544V7.23256ZM79.2055 7.23256H79.8567V7.88372H79.2055V7.23256ZM77.9032 6.5814H78.5544V7.23256H77.9032V6.5814ZM77.9032 7.23256H78.5544V7.88372H77.9032V7.23256ZM79.2055 7.88372H79.8567V8.53488H79.2055V7.88372ZM76.6009 5.93023H77.252V6.5814H76.6009V5.93023ZM75.9497 5.93023H76.6009V6.5814H75.9497V5.93023ZM75.9497 6.5814H76.6009V7.23256H75.9497V6.5814ZM76.6009 6.5814H77.252V7.23256H76.6009V6.5814ZM75.2986 5.93023H75.9497V6.5814H75.2986V5.93023ZM74.6474 5.93023H75.2986V6.5814H74.6474V5.93023ZM74.6474 6.5814H75.2986V7.23256H74.6474V6.5814ZM75.2986 6.5814H75.9497V7.23256H75.2986V6.5814ZM76.6009 8.53488H77.252V9.18605H76.6009V8.53488ZM75.9497 8.53488H76.6009V9.18605H75.9497V8.53488ZM75.2986 8.53488H75.9497V9.18605H75.2986V8.53488ZM74.6474 8.53488H75.2986V9.18605H74.6474V8.53488ZM74.6474 9.18605H75.2986V9.83721H74.6474V9.18605ZM75.2986 9.18605H75.9497V9.83721H75.2986V9.18605ZM75.9497 9.18605H76.6009V9.83721H75.9497V9.18605ZM76.6009 9.18605H77.252V9.83721H76.6009V9.18605ZM77.252 9.18605H77.9032V9.83721H77.252V9.18605ZM77.252 8.53488H77.9032V9.18605H77.252V8.53488ZM77.9032 8.53488H78.5544V9.18605H77.9032V8.53488ZM78.5544 8.53488H79.2055V9.18605H78.5544V8.53488ZM79.2055 8.53488H79.8567V9.18605H79.2055V8.53488ZM79.2055 9.18605H79.8567V9.83721H79.2055V9.18605ZM78.5544 9.18605H79.2055V9.83721H78.5544V9.18605ZM77.9032 9.18605H78.5544V9.83721H77.9032V9.18605ZM77.252 9.83721H77.9032V10.4884H77.252V9.83721ZM77.9032 9.83721H78.5544V10.4884H77.9032V9.83721ZM78.5544 9.83721H79.2055V10.4884H78.5544V9.83721ZM79.2055 9.83721H79.8567V10.4884H79.2055V9.83721ZM79.2055 10.4884H79.8567V11.1395H79.2055V10.4884ZM78.5544 10.4884H79.2055V11.1395H78.5544V10.4884ZM77.9032 10.4884H78.5544V11.1395H77.9032V10.4884ZM77.252 10.4884H77.9032V11.1395H77.252V10.4884ZM77.252 11.1395H77.9032V11.7907H77.252V11.1395ZM77.9032 11.1395H78.5544V11.7907H77.9032V11.1395ZM77.9032 11.7907H78.5544V12.4419H77.9032V11.7907ZM77.252 11.7907H77.9032V12.4419H77.252V11.7907ZM83.1125 3.32558H83.7637V3.97674H83.1125V3.32558ZM82.4614 3.32558H83.1125V3.97674H82.4614V3.32558ZM82.4614 3.97674H83.1125V4.62791H82.4614V3.97674ZM83.1125 3.97674H83.7637V4.62791H83.1125V3.97674ZM83.7637 3.32558H84.4148V3.97674H83.7637V3.32558ZM84.4148 3.32558H85.066V3.97674H84.4148V3.32558ZM84.4148 3.97674H85.066V4.62791H84.4148V3.97674ZM83.7637 3.97674H84.4148V4.62791H83.7637V3.97674ZM82.4614 4.62791H83.1125V5.27907H82.4614V4.62791ZM82.4614 5.27907H83.1125V5.93023H82.4614V5.27907ZM82.4614 5.93023H83.1125V6.5814H82.4614V5.93023ZM82.4614 6.5814H83.1125V7.23256H82.4614V6.5814ZM82.4614 7.23256H83.1125V7.88372H82.4614V7.23256ZM82.4614 7.88372H83.1125V8.53488H82.4614V7.88372ZM82.4614 8.53488H83.1125V9.18605H82.4614V8.53488ZM82.4614 9.18605H83.1125V9.83721H82.4614V9.18605ZM82.4614 9.83721H83.1125V10.4884H82.4614V9.83721ZM82.4614 10.4884H83.1125V11.1395H82.4614V10.4884ZM82.4614 11.1395H83.1125V11.7907H82.4614V11.1395ZM82.4614 11.7907H83.1125V12.4419H82.4614V11.7907ZM82.4614 12.4419H83.1125V13.093H82.4614V12.4419ZM82.4614 13.093H83.1125V13.7442H82.4614V13.093ZM82.4614 13.7442H83.1125V14.3953H82.4614V13.7442ZM82.4614 14.3953H83.1125V15.0465H82.4614V14.3953ZM82.4614 15.0465H83.1125V15.6977H82.4614V15.0465ZM82.4614 15.6977H83.1125V16.3488H82.4614V15.6977ZM82.4614 16.3488H83.1125V17H82.4614V16.3488ZM83.1125 16.3488H83.7637V17H83.1125V16.3488ZM83.7637 16.3488H84.4148V17H83.7637V16.3488ZM84.4148 16.3488H85.066V17H84.4148V16.3488ZM84.4148 15.6977H85.066V16.3488H84.4148V15.6977ZM84.4148 15.0465H85.066V15.6977H84.4148V15.0465ZM84.4148 14.3953H85.066V15.0465H84.4148V14.3953ZM84.4148 13.093H85.066V13.7442H84.4148V13.093ZM84.4148 12.4419H85.066V13.093H84.4148V12.4419ZM84.4148 11.7907H85.066V12.4419H84.4148V11.7907ZM84.4148 11.1395H85.066V11.7907H84.4148V11.1395ZM84.4148 10.4884H85.066V11.1395H84.4148V10.4884ZM84.4148 9.83721H85.066V10.4884H84.4148V9.83721ZM84.4148 13.7442H85.066V14.3953H84.4148V13.7442ZM83.7637 11.1395H84.4148V11.7907H83.7637V11.1395ZM83.7637 10.4884H84.4148V11.1395H83.7637V10.4884ZM84.4148 9.18605H85.066V9.83721H84.4148V9.18605ZM84.4148 8.53488H85.066V9.18605H84.4148V8.53488ZM84.4148 7.88372H85.066V8.53488H84.4148V7.88372ZM83.7637 7.88372H84.4148V8.53488H83.7637V7.88372ZM83.7637 7.23256H84.4148V7.88372H83.7637V7.23256ZM83.7637 6.5814H84.4148V7.23256H83.7637V6.5814ZM84.4148 5.93023H85.066V6.5814H84.4148V5.93023ZM84.4148 5.27907H85.066V5.93023H84.4148V5.27907ZM84.4148 4.62791H85.066V5.27907H84.4148V4.62791ZM84.4148 6.5814H85.066V7.23256H84.4148V6.5814ZM84.4148 7.23256H85.066V7.88372H84.4148V7.23256ZM83.7637 5.27907H84.4148V5.93023H83.7637V5.27907ZM83.7637 5.93023H84.4148V6.5814H83.7637V5.93023ZM83.1125 6.5814H83.7637V7.23256H83.1125V6.5814ZM83.1125 7.88372H83.7637V8.53488H83.1125V7.88372ZM83.1125 8.53488H83.7637V9.18605H83.1125V8.53488ZM83.7637 8.53488H84.4148V9.18605H83.7637V8.53488ZM83.7637 9.18605H84.4148V9.83721H83.7637V9.18605ZM83.7637 4.62791H84.4148V5.27907H83.7637V4.62791ZM83.1125 5.27907H83.7637V5.93023H83.1125V5.27907ZM83.1125 5.93023H83.7637V6.5814H83.1125V5.93023ZM83.1125 7.23256H83.7637V7.88372H83.1125V7.23256ZM83.1125 4.62791H83.7637V5.27907H83.1125V4.62791ZM83.1125 9.18605H83.7637V9.83721H83.1125V9.18605ZM83.1125 9.83721H83.7637V10.4884H83.1125V9.83721ZM83.1125 10.4884H83.7637V11.1395H83.1125V10.4884ZM83.1125 11.1395H83.7637V11.7907H83.1125V11.1395ZM83.1125 11.7907H83.7637V12.4419H83.1125V11.7907ZM83.1125 12.4419H83.7637V13.093H83.1125V12.4419ZM83.1125 13.093H83.7637V13.7442H83.1125V13.093ZM83.1125 13.7442H83.7637V14.3953H83.1125V13.7442ZM83.1125 14.3953H83.7637V15.0465H83.1125V14.3953ZM83.7637 12.4419H84.4148V13.093H83.7637V12.4419ZM83.7637 11.7907H84.4148V12.4419H83.7637V11.7907ZM83.7637 9.83721H84.4148V10.4884H83.7637V9.83721ZM83.7637 13.093H84.4148V13.7442H83.7637V13.093ZM83.7637 13.7442H84.4148V14.3953H83.7637V13.7442ZM83.7637 14.3953H84.4148V15.0465H83.7637V14.3953ZM83.7637 15.0465H84.4148V15.6977H83.7637V15.0465ZM83.7637 15.6977H84.4148V16.3488H83.7637V15.6977ZM83.1125 15.6977H83.7637V16.3488H83.1125V15.6977ZM83.1125 15.0465H83.7637V15.6977H83.1125V15.0465ZM81.8102 15.0465H82.4614V15.6977H81.8102V15.0465ZM81.159 15.0465H81.8102V15.6977H81.159V15.0465ZM81.159 14.3953H81.8102V15.0465H81.159V14.3953ZM81.8102 14.3953H82.4614V15.0465H81.8102V14.3953ZM85.066 14.3953H85.7172V15.0465H85.066V14.3953ZM85.7172 14.3953H86.3683V15.0465H85.7172V14.3953ZM85.7172 15.0465H86.3683V15.6977H85.7172V15.0465ZM85.066 15.0465H85.7172V15.6977H85.066V15.0465ZM81.8102 7.88372H82.4614V8.53488H81.8102V7.88372ZM81.8102 7.23256H82.4614V7.88372H81.8102V7.23256ZM81.159 7.23256H81.8102V7.88372H81.159V7.23256ZM81.159 7.88372H81.8102V8.53488H81.159V7.88372ZM85.066 7.23256H85.7172V7.88372H85.066V7.23256ZM85.066 7.88372H85.7172V8.53488H85.066V7.88372ZM85.7172 7.88372H86.3683V8.53488H85.7172V7.88372ZM85.7172 7.23256H86.3683V7.88372H85.7172V7.23256ZM88.3218 3.32558H88.973V3.97674H88.3218V3.32558ZM87.6707 3.32558H88.3218V3.97674H87.6707V3.32558ZM87.6707 3.97674H88.3218V4.62791H87.6707V3.97674ZM88.3218 3.97674H88.973V4.62791H88.3218V3.97674ZM88.973 3.97674H89.6241V4.62791H88.973V3.97674ZM88.973 3.32558H89.6241V3.97674H88.973V3.32558ZM89.6241 3.32558H90.2753V3.97674H89.6241V3.32558ZM89.6241 3.97674H90.2753V4.62791H89.6241V3.97674ZM87.6707 4.62791H88.3218V5.27907H87.6707V4.62791ZM87.6707 5.27907H88.3218V5.93023H87.6707V5.27907ZM87.6707 5.93023H88.3218V6.5814H87.6707V5.93023ZM87.6707 7.23256H88.3218V7.88372H87.6707V7.23256ZM87.6707 7.88372H88.3218V8.53488H87.6707V7.88372ZM87.6707 6.5814H88.3218V7.23256H87.6707V6.5814ZM87.6707 8.53488H88.3218V9.18605H87.6707V8.53488ZM87.6707 9.18605H88.3218V9.83721H87.6707V9.18605ZM87.6707 9.83721H88.3218V10.4884H87.6707V9.83721ZM87.6707 10.4884H88.3218V11.1395H87.6707V10.4884ZM87.6707 11.1395H88.3218V11.7907H87.6707V11.1395ZM87.6707 11.7907H88.3218V12.4419H87.6707V11.7907ZM87.6707 12.4419H88.3218V13.093H87.6707V12.4419ZM87.6707 13.093H88.3218V13.7442H87.6707V13.093ZM87.6707 13.7442H88.3218V14.3953H87.6707V13.7442ZM87.6707 14.3953H88.3218V15.0465H87.6707V14.3953ZM87.6707 15.0465H88.3218V15.6977H87.6707V15.0465ZM88.3218 15.0465H88.973V15.6977H88.3218V15.0465ZM88.973 15.0465H89.6241V15.6977H88.973V15.0465ZM89.6241 15.0465H90.2753V15.6977H89.6241V15.0465ZM89.6241 14.3953H90.2753V15.0465H89.6241V14.3953ZM89.6241 13.7442H90.2753V14.3953H89.6241V13.7442ZM89.6241 13.093H90.2753V13.7442H89.6241V13.093ZM89.6241 12.4419H90.2753V13.093H89.6241V12.4419ZM89.6241 11.7907H90.2753V12.4419H89.6241V11.7907ZM89.6241 11.1395H90.2753V11.7907H89.6241V11.1395ZM89.6241 10.4884H90.2753V11.1395H89.6241V10.4884ZM88.973 9.83721H89.6241V10.4884H88.973V9.83721ZM88.973 9.18605H89.6241V9.83721H88.973V9.18605ZM88.973 8.53488H89.6241V9.18605H88.973V8.53488ZM88.973 7.88372H89.6241V8.53488H88.973V7.88372ZM89.6241 9.18605H90.2753V9.83721H89.6241V9.18605ZM89.6241 9.83721H90.2753V10.4884H89.6241V9.83721ZM89.6241 8.53488H90.2753V9.18605H89.6241V8.53488ZM89.6241 7.88372H90.2753V8.53488H89.6241V7.88372ZM89.6241 7.23256H90.2753V7.88372H89.6241V7.23256ZM89.6241 6.5814H90.2753V7.23256H89.6241V6.5814ZM89.6241 5.93023H90.2753V6.5814H89.6241V5.93023ZM89.6241 5.27907H90.2753V5.93023H89.6241V5.27907ZM89.6241 4.62791H90.2753V5.27907H89.6241V4.62791ZM88.973 6.5814H89.6241V7.23256H88.973V6.5814ZM88.973 7.23256H89.6241V7.88372H88.973V7.23256ZM88.973 5.93023H89.6241V6.5814H88.973V5.93023ZM88.973 4.62791H89.6241V5.27907H88.973V4.62791ZM88.3218 4.62791H88.973V5.27907H88.3218V4.62791ZM88.3218 5.27907H88.973V5.93023H88.3218V5.27907ZM88.3218 5.93023H88.973V6.5814H88.3218V5.93023ZM88.3218 6.5814H88.973V7.23256H88.3218V6.5814ZM88.3218 7.23256H88.973V7.88372H88.3218V7.23256ZM88.973 5.27907H89.6241V5.93023H88.973V5.27907ZM88.3218 7.88372H88.973V8.53488H88.3218V7.88372ZM88.3218 8.53488H88.973V9.18605H88.3218V8.53488ZM88.3218 9.18605H88.973V9.83721H88.3218V9.18605ZM88.3218 9.83721H88.973V10.4884H88.3218V9.83721ZM88.3218 10.4884H88.973V11.1395H88.3218V10.4884ZM88.3218 11.1395H88.973V11.7907H88.3218V11.1395ZM88.3218 11.7907H88.973V12.4419H88.3218V11.7907ZM88.3218 12.4419H88.973V13.093H88.3218V12.4419ZM88.3218 13.093H88.973V13.7442H88.3218V13.093ZM88.3218 13.7442H88.973V14.3953H88.3218V13.7442ZM88.3218 14.3953H88.973V15.0465H88.3218V14.3953ZM88.973 14.3953H89.6241V15.0465H88.973V14.3953ZM88.973 13.7442H89.6241V14.3953H88.973V13.7442ZM88.973 13.093H89.6241V13.7442H88.973V13.093ZM88.973 11.7907H89.6241V12.4419H88.973V11.7907ZM88.973 11.1395H89.6241V11.7907H88.973V11.1395ZM88.973 10.4884H89.6241V11.1395H88.973V10.4884ZM88.973 12.4419H89.6241V13.093H88.973V12.4419ZM89.6241 15.6977H90.2753V16.3488H89.6241V15.6977ZM88.973 15.6977H89.6241V16.3488H88.973V15.6977ZM88.973 16.3488H89.6241V17H88.973V16.3488ZM89.6241 16.3488H90.2753V17H89.6241V16.3488ZM90.2753 14.3953H90.9265V15.0465H90.2753V14.3953ZM90.9265 14.3953H91.5776V15.0465H90.9265V14.3953ZM90.9265 15.0465H91.5776V15.6977H90.9265V15.0465ZM90.2753 15.0465H90.9265V15.6977H90.2753V15.0465ZM79.2055 11.1395H79.8567V11.7907H79.2055V11.1395ZM78.5544 11.1395H79.2055V11.7907H78.5544V11.1395ZM77.9032 12.4419H78.5544V13.093H77.9032V12.4419ZM77.252 12.4419H77.9032V13.093H77.252V12.4419ZM76.6009 13.7442H77.252V14.3953H76.6009V13.7442ZM75.9497 13.7442H76.6009V14.3953H75.9497V13.7442ZM76.6009 13.093H77.252V13.7442H76.6009V13.093ZM75.2986 14.3953H75.9497V15.0465H75.2986V14.3953ZM74.6474 14.3953H75.2986V15.0465H74.6474V14.3953ZM74.6474 15.0465H75.2986V15.6977H74.6474V15.0465ZM75.2986 15.0465H75.9497V15.6977H75.2986V15.0465ZM73.9962 14.3953H74.6474V15.0465H73.9962V14.3953ZM73.3451 14.3953H73.9962V15.0465H73.3451V14.3953ZM73.9962 15.0465H74.6474V15.6977H73.9962V15.0465ZM76.6009 15.6977H77.252V16.3488H76.6009V15.6977ZM75.9497 15.6977H76.6009V16.3488H75.9497V15.6977ZM75.9497 16.3488H76.6009V17H75.9497V16.3488ZM76.6009 16.3488H77.252V17H76.6009V16.3488ZM77.252 15.6977H77.9032V16.3488H77.252V15.6977ZM77.9032 15.6977H78.5544V16.3488H77.9032V15.6977ZM77.9032 16.3488H78.5544V17H77.9032V16.3488ZM77.252 16.3488H77.9032V17H77.252V16.3488ZM75.9497 14.3953H76.6009V15.0465H75.9497V14.3953ZM79.2055 15.0465H79.8567V15.6977H79.2055V15.0465ZM78.5544 15.0465H79.2055V15.6977H78.5544V15.0465ZM79.2055 14.3953H79.8567V15.0465H79.2055V14.3953ZM76.6009 15.0465H77.252V15.6977H76.6009V15.0465ZM75.9497 15.0465H76.6009V15.6977H75.9497V15.0465ZM79.8567 13.7442H80.5079V14.3953H79.8567V13.7442ZM80.5079 13.093H81.159V13.7442H80.5079V13.093ZM80.5079 13.7442H81.159V14.3953H80.5079V13.7442ZM79.8567 14.3953H80.5079V15.0465H79.8567V14.3953ZM78.5544 15.6977H79.2055V16.3488H78.5544V15.6977ZM85.066 15.6977H85.7172V16.3488H85.066V15.6977ZM90.2753 15.6977H90.9265V16.3488H90.2753V15.6977ZM88.973 1.37209H89.6241V2.02326H88.973V1.37209ZM85.7172 1.37209H86.3683V2.02326H85.7172V1.37209ZM80.5079 1.37209H81.159V2.02326H80.5079V1.37209ZM83.7637 1.37209H84.4148V2.02326H83.7637V1.37209ZM76.6009 1.37209H77.252V2.02326H76.6009V1.37209ZM77.9032 1.37209H78.5544V2.02326H77.9032V1.37209ZM79.2055 1.37209H79.8567V2.02326H79.2055V1.37209ZM77.252 13.093H77.9032V13.7442H77.252V13.093ZM78.5544 11.7907H79.2055V12.4419H78.5544V11.7907ZM75.2986 15.6977H75.9497V16.3488H75.2986V15.6977ZM74.6474 15.6977H75.2986V16.3488H74.6474V15.6977ZM75.2986 16.3488H75.9497V17H75.2986V16.3488ZM77.252 0.720931H77.9032V1.37209H77.252V0.720931ZM76.6009 0.720931H77.252V1.37209H76.6009V0.720931ZM75.9497 1.37209H76.6009V2.02326H75.9497V1.37209ZM73.3451 15.0465H73.9962V15.6977H73.3451V15.0465ZM81.8102 15.6977H82.4614V16.3488H81.8102V15.6977ZM88.3218 15.6977H88.973V16.3488H88.3218V15.6977ZM97.062 8.53488H97.7132V9.18605H97.062V8.53488ZM97.7132 8.53488H98.3643V9.18605H97.7132V8.53488ZM97.7132 9.18605H98.3643V9.83721H97.7132V9.18605ZM98.3643 8.53488H99.0155V9.18605H98.3643V8.53488ZM96.4108 8.53488H97.062V9.18605H96.4108V8.53488ZM96.4108 9.18605H97.062V9.83721H96.4108V9.18605ZM96.4108 10.4884H97.062V11.1395H96.4108V10.4884ZM96.4108 11.1395H97.062V11.7907H96.4108V11.1395ZM96.4108 11.7907H97.062V12.4419H96.4108V11.7907ZM96.4108 12.4419H97.062V13.093H96.4108V12.4419ZM96.4108 13.093H97.062V13.7442H96.4108V13.093ZM96.4108 13.7442H97.062V14.3953H96.4108V13.7442ZM97.062 13.7442H97.7132V14.3953H97.062V13.7442ZM97.7132 13.7442H98.3643V14.3953H97.7132V13.7442ZM97.7132 13.093H98.3643V13.7442H97.7132V13.093ZM98.3643 13.093H99.0155V13.7442H98.3643V13.093ZM98.3643 12.4419H99.0155V13.093H98.3643V12.4419ZM98.3643 11.1395H99.0155V11.7907H98.3643V11.1395ZM98.3643 10.4884H99.0155V11.1395H98.3643V10.4884ZM98.3643 9.83721H99.0155V10.4884H98.3643V9.83721ZM98.3643 9.18605H99.0155V9.83721H98.3643V9.18605ZM97.7132 9.83721H98.3643V10.4884H97.7132V9.83721ZM97.7132 10.4884H98.3643V11.1395H97.7132V10.4884ZM97.7132 11.1395H98.3643V11.7907H97.7132V11.1395ZM97.7132 11.7907H98.3643V12.4419H97.7132V11.7907ZM97.7132 12.4419H98.3643V13.093H97.7132V12.4419ZM98.3643 11.7907H99.0155V12.4419H98.3643V11.7907ZM97.062 11.7907H97.7132V12.4419H97.062V11.7907ZM97.062 11.1395H97.7132V11.7907H97.062V11.1395ZM97.062 10.4884H97.7132V11.1395H97.062V10.4884ZM97.062 9.83721H97.7132V10.4884H97.062V9.83721ZM97.062 9.18605H97.7132V9.83721H97.062V9.18605ZM96.4108 9.83721H97.062V10.4884H96.4108V9.83721ZM97.062 12.4419H97.7132V13.093H97.062V12.4419ZM97.062 13.093H97.7132V13.7442H97.062V13.093ZM95.7597 15.0465H96.4108V15.6977H95.7597V15.0465ZM95.1085 15.0465H95.7597V15.6977H95.1085V15.0465ZM95.1085 14.3953H95.7597V15.0465H95.1085V14.3953ZM95.7597 14.3953H96.4108V15.0465H95.7597V14.3953ZM96.4108 14.3953H97.062V15.0465H96.4108V14.3953ZM96.4108 15.0465H97.062V15.6977H96.4108V15.0465ZM97.062 15.0465H97.7132V15.6977H97.062V15.0465ZM97.7132 15.0465H98.3643V15.6977H97.7132V15.0465ZM98.3643 15.0465H99.0155V15.6977H98.3643V15.0465ZM98.3643 14.3953H99.0155V15.0465H98.3643V14.3953ZM98.3643 13.7442H99.0155V14.3953H98.3643V13.7442ZM97.7132 14.3953H98.3643V15.0465H97.7132V14.3953ZM97.062 14.3953H97.7132V15.0465H97.062V14.3953ZM97.7132 15.6977H98.3643V16.3488H97.7132V15.6977ZM97.7132 16.3488H98.3643V17H97.7132V16.3488ZM98.3643 16.3488H99.0155V17H98.3643V16.3488ZM98.3643 15.6977H99.0155V16.3488H98.3643V15.6977ZM99.0155 15.0465H99.6666V15.6977H99.0155V15.0465ZM99.0155 14.3953H99.6666V15.0465H99.0155V14.3953ZM99.6666 14.3953H100.318V15.0465H99.6666V14.3953ZM99.6666 15.0465H100.318V15.6977H99.6666V15.0465ZM99.6666 15.6977H100.318V16.3488H99.6666V15.6977ZM99.6666 16.3488H100.318V17H99.6666V16.3488ZM99.0155 16.3488H99.6666V17H99.0155V16.3488ZM99.0155 15.6977H99.6666V16.3488H99.0155V15.6977ZM100.318 14.3953H100.969V15.0465H100.318V14.3953ZM100.969 14.3953H101.62V15.0465H100.969V14.3953ZM100.969 15.0465H101.62V15.6977H100.969V15.0465ZM100.318 15.0465H100.969V15.6977H100.318V15.0465ZM101.62 14.3953H102.271V15.0465H101.62V14.3953ZM102.271 14.3953H102.922V15.0465H102.271V14.3953ZM101.62 15.0465H102.271V15.6977H101.62V15.0465ZM101.62 13.7442H102.271V14.3953H101.62V13.7442ZM101.62 13.093H102.271V13.7442H101.62V13.093ZM102.271 13.093H102.922V13.7442H102.271V13.093ZM102.271 13.7442H102.922V14.3953H102.271V13.7442ZM102.922 13.093H103.574V13.7442H102.922V13.093ZM103.574 12.4419H104.225V13.093H103.574V12.4419ZM103.574 11.7907H104.225V12.4419H103.574V11.7907ZM103.574 11.1395H104.225V11.7907H103.574V11.1395ZM102.922 11.1395H103.574V11.7907H102.922V11.1395ZM102.271 11.1395H102.922V11.7907H102.271V11.1395ZM102.271 11.7907H102.922V12.4419H102.271V11.7907ZM101.62 11.7907H102.271V12.4419H101.62V11.7907ZM101.62 12.4419H102.271V13.093H101.62V12.4419ZM102.271 12.4419H102.922V13.093H102.271V12.4419ZM102.922 12.4419H103.574V13.093H102.922V12.4419ZM102.922 11.7907H103.574V12.4419H102.922V11.7907ZM101.62 11.1395H102.271V11.7907H101.62V11.1395ZM101.62 10.4884H102.271V11.1395H101.62V10.4884ZM102.271 10.4884H102.922V11.1395H102.271V10.4884ZM102.271 9.83721H102.922V10.4884H102.271V9.83721ZM102.922 9.83721H103.574V10.4884H102.922V9.83721ZM103.574 9.83721H104.225V10.4884H103.574V9.83721ZM103.574 10.4884H104.225V11.1395H103.574V10.4884ZM102.922 10.4884H103.574V11.1395H102.922V10.4884ZM101.62 9.83721H102.271V10.4884H101.62V9.83721ZM101.62 9.18605H102.271V9.83721H101.62V9.18605ZM102.271 9.18605H102.922V9.83721H102.271V9.18605ZM102.271 8.53488H102.922V9.18605H102.271V8.53488ZM102.922 8.53488H103.574V9.18605H102.922V8.53488ZM103.574 8.53488H104.225V9.18605H103.574V8.53488ZM103.574 9.18605H104.225V9.83721H103.574V9.18605ZM102.922 9.18605H103.574V9.83721H102.922V9.18605ZM101.62 8.53488H102.271V9.18605H101.62V8.53488ZM99.0155 5.93023H99.6666V6.5814H99.0155V5.93023ZM99.0155 6.5814H99.6666V7.23256H99.0155V6.5814ZM99.6666 6.5814H100.318V7.23256H99.6666V6.5814ZM99.6666 5.93023H100.318V6.5814H99.6666V5.93023ZM98.3643 7.23256H99.0155V7.88372H98.3643V7.23256ZM97.7132 7.23256H98.3643V7.88372H97.7132V7.23256ZM98.3643 7.88372H99.0155V8.53488H98.3643V7.88372ZM97.7132 7.88372H98.3643V8.53488H97.7132V7.88372ZM100.318 5.93023H100.969V6.5814H100.318V5.93023ZM100.969 5.93023H101.62V6.5814H100.969V5.93023ZM100.969 6.5814H101.62V7.23256H100.969V6.5814ZM100.318 6.5814H100.969V7.23256H100.318V6.5814ZM101.62 5.93023H102.271V6.5814H101.62V5.93023ZM102.271 5.93023H102.922V6.5814H102.271V5.93023ZM102.271 6.5814H102.922V7.23256H102.271V6.5814ZM101.62 6.5814H102.271V7.23256H101.62V6.5814ZM104.225 7.88372H104.876V8.53488H104.225V7.88372ZM104.225 7.23256H104.876V7.88372H104.225V7.23256ZM104.876 7.23256H105.527V7.88372H104.876V7.23256ZM104.876 7.88372H105.527V8.53488H104.876V7.88372ZM103.574 7.23256H104.225V7.88372H103.574V7.23256ZM102.922 7.23256H103.574V7.88372H102.922V7.23256ZM102.271 7.23256H102.922V7.88372H102.271V7.23256ZM101.62 7.23256H102.271V7.88372H101.62V7.23256ZM102.271 7.88372H102.922V8.53488H102.271V7.88372ZM102.922 7.88372H103.574V8.53488H102.922V7.88372ZM103.574 7.88372H104.225V8.53488H103.574V7.88372ZM101.62 7.88372H102.271V8.53488H101.62V7.88372ZM97.062 15.6977H97.7132V16.3488H97.062V15.6977ZM102.922 6.5814H103.574V7.23256H102.922V6.5814ZM97.062 7.88372H97.7132V8.53488H97.062V7.88372ZM100.318 15.6977H100.969V16.3488H100.318V15.6977ZM102.922 13.7442H103.574V14.3953H102.922V13.7442ZM103.574 13.093H104.225V13.7442H103.574V13.093ZM103.574 13.7442H104.225V14.3953H103.574V13.7442ZM103.574 14.3953H104.225V15.0465H103.574V14.3953ZM102.922 14.3953H103.574V15.0465H102.922V14.3953ZM104.225 14.3953H104.876V15.0465H104.225V14.3953ZM104.876 14.3953H105.527V15.0465H104.876V14.3953ZM104.876 15.0465H105.527V15.6977H104.876V15.0465ZM104.225 15.0465H104.876V15.6977H104.225V15.0465ZM102.922 15.0465H103.574V15.6977H102.922V15.0465ZM102.271 15.0465H102.922V15.6977H102.271V15.0465ZM103.574 15.0465H104.225V15.6977H103.574V15.0465ZM102.922 15.6977H103.574V16.3488H102.922V15.6977ZM102.271 15.6977H102.922V16.3488H102.271V15.6977ZM103.574 15.6977H104.225V16.3488H103.574V15.6977ZM104.225 15.6977H104.876V16.3488H104.225V15.6977ZM103.574 16.3488H104.225V17H103.574V16.3488ZM102.271 16.3488H102.922V17H102.271V16.3488ZM102.922 16.3488H103.574V17H102.922V16.3488ZM98.3643 6.5814H99.0155V7.23256H98.3643V6.5814ZM111.032 16.3488H111.684V17H111.032V16.3488ZM111.684 16.3488H112.335V17H111.684V16.3488ZM110.381 15.6977H111.032V16.3488H110.381V15.6977ZM111.032 15.6977H111.684V16.3488H111.032V15.6977ZM111.684 15.6977H112.335V16.3488H111.684V15.6977ZM112.335 15.6977H112.986V16.3488H112.335V15.6977ZM109.73 15.0465H110.381V15.6977H109.73V15.0465ZM110.381 15.0465H111.032V15.6977H110.381V15.0465ZM110.381 14.3953H111.032V15.0465H110.381V14.3953ZM111.032 14.3953H111.684V15.0465H111.032V14.3953ZM111.032 15.0465H111.684V15.6977H111.032V15.0465ZM111.684 15.0465H112.335V15.6977H111.684V15.0465ZM112.335 15.0465H112.986V15.6977H112.335V15.0465ZM112.335 14.3953H112.986V15.0465H112.335V14.3953ZM111.684 14.3953H112.335V15.0465H111.684V14.3953ZM111.032 13.7442H111.684V14.3953H111.032V13.7442ZM111.684 13.7442H112.335V14.3953H111.684V13.7442ZM112.335 13.7442H112.986V14.3953H112.335V13.7442ZM112.335 13.093H112.986V13.7442H112.335V13.093ZM111.684 13.093H112.335V13.7442H111.684V13.093ZM111.032 13.093H111.684V13.7442H111.032V13.093ZM111.032 12.4419H111.684V13.093H111.032V12.4419ZM111.032 11.7907H111.684V12.4419H111.032V11.7907ZM111.032 11.1395H111.684V11.7907H111.032V11.1395ZM111.032 10.4884H111.684V11.1395H111.032V10.4884ZM111.032 9.83721H111.684V10.4884H111.032V9.83721ZM111.684 9.83721H112.335V10.4884H111.684V9.83721ZM112.335 9.83721H112.986V10.4884H112.335V9.83721ZM112.335 10.4884H112.986V11.1395H112.335V10.4884ZM112.335 11.1395H112.986V11.7907H112.335V11.1395ZM112.335 11.7907H112.986V12.4419H112.335V11.7907ZM111.684 11.7907H112.335V12.4419H111.684V11.7907ZM111.684 12.4419H112.335V13.093H111.684V12.4419ZM111.684 11.1395H112.335V11.7907H111.684V11.1395ZM111.684 10.4884H112.335V11.1395H111.684V10.4884ZM112.335 12.4419H112.986V13.093H112.335V12.4419ZM112.335 9.18605H112.986V9.83721H112.335V9.18605ZM112.335 8.53488H112.986V9.18605H112.335V8.53488ZM112.335 7.88372H112.986V8.53488H112.335V7.88372ZM112.335 7.23256H112.986V7.88372H112.335V7.23256ZM112.335 6.5814H112.986V7.23256H112.335V6.5814ZM111.032 6.5814H111.684V7.23256H111.032V6.5814ZM111.684 7.23256H112.335V7.88372H111.684V7.23256ZM111.684 7.88372H112.335V8.53488H111.684V7.88372ZM111.684 8.53488H112.335V9.18605H111.684V8.53488ZM111.684 9.18605H112.335V9.83721H111.684V9.18605ZM111.032 9.18605H111.684V9.83721H111.032V9.18605ZM111.032 8.53488H111.684V9.18605H111.032V8.53488ZM111.032 7.88372H111.684V8.53488H111.032V7.88372ZM111.032 7.23256H111.684V7.88372H111.032V7.23256ZM111.684 6.5814H112.335V7.23256H111.684V6.5814ZM110.381 13.7442H111.032V14.3953H110.381V13.7442ZM110.381 13.093H111.032V13.7442H110.381V13.093ZM110.381 12.4419H111.032V13.093H110.381V12.4419ZM110.381 11.7907H111.032V12.4419H110.381V11.7907ZM110.381 11.1395H111.032V11.7907H110.381V11.1395ZM110.381 10.4884H111.032V11.1395H110.381V10.4884ZM110.381 9.83721H111.032V10.4884H110.381V9.83721ZM110.381 9.18605H111.032V9.83721H110.381V9.18605ZM110.381 8.53488H111.032V9.18605H110.381V8.53488ZM110.381 7.88372H111.032V8.53488H110.381V7.88372ZM110.381 6.5814H111.032V7.23256H110.381V6.5814ZM110.381 7.23256H111.032V7.88372H110.381V7.23256ZM113.637 14.3953H114.288V15.0465H113.637V14.3953ZM111.032 5.93023H111.684V6.5814H111.032V5.93023ZM111.684 5.93023H112.335V6.5814H111.684V5.93023ZM110.381 3.32558H111.032V3.97674H110.381V3.32558ZM111.032 3.32558H111.684V3.97674H111.032V3.32558ZM111.684 3.32558H112.335V3.97674H111.684V3.32558ZM112.335 3.32558H112.986V3.97674H112.335V3.32558ZM112.335 2.67442H112.986V3.32558H112.335V2.67442ZM112.335 2.02326H112.986V2.67442H112.335V2.02326ZM112.335 1.37209H112.986V2.02326H112.335V1.37209ZM111.684 1.37209H112.335V2.02326H111.684V1.37209ZM111.032 1.37209H111.684V2.02326H111.032V1.37209ZM110.381 1.37209H111.032V2.02326H110.381V1.37209ZM110.381 2.02326H111.032V2.67442H110.381V2.02326ZM110.381 2.67442H111.032V3.32558H110.381V2.67442ZM111.032 2.67442H111.684V3.32558H111.032V2.67442ZM111.684 2.67442H112.335V3.32558H111.684V2.67442ZM111.684 2.02326H112.335V2.67442H111.684V2.02326ZM111.032 2.02326H111.684V2.67442H111.032V2.02326ZM112.986 15.0465H113.637V15.6977H112.986V15.0465ZM109.73 7.23256H110.381V7.88372H109.73V7.23256ZM109.079 7.23256H109.73V7.88372H109.079V7.23256ZM109.079 7.88372H109.73V8.53488H109.079V7.88372ZM109.73 7.88372H110.381V8.53488H109.73V7.88372ZM112.986 7.23256H113.637V7.88372H112.986V7.23256ZM113.637 7.23256H114.288V7.88372H113.637V7.23256ZM113.637 7.88372H114.288V8.53488H113.637V7.88372ZM112.986 7.88372H113.637V8.53488H112.986V7.88372ZM109.079 14.3953H109.73V15.0465H109.079V14.3953ZM109.73 14.3953H110.381V15.0465H109.73V14.3953ZM112.986 14.3953H113.637V15.0465H112.986V14.3953ZM109.079 15.0465H109.73V15.6977H109.079V15.0465ZM110.381 16.3488H111.032V17H110.381V16.3488ZM119.78 8.53488H120.431V9.18605H119.78V8.53488ZM120.431 8.53488H121.083V9.18605H120.431V8.53488ZM120.431 9.18605H121.083V9.83721H120.431V9.18605ZM121.083 8.53488H121.734V9.18605H121.083V8.53488ZM119.129 8.53488H119.78V9.18605H119.129V8.53488ZM119.129 9.18605H119.78V9.83721H119.129V9.18605ZM119.129 10.4884H119.78V11.1395H119.129V10.4884ZM119.129 11.1395H119.78V11.7907H119.129V11.1395ZM119.129 11.7907H119.78V12.4419H119.129V11.7907ZM119.129 12.4419H119.78V13.093H119.129V12.4419ZM119.129 13.093H119.78V13.7442H119.129V13.093ZM119.129 13.7442H119.78V14.3953H119.129V13.7442ZM119.78 13.7442H120.431V14.3953H119.78V13.7442ZM120.431 13.7442H121.083V14.3953H120.431V13.7442ZM120.431 13.093H121.083V13.7442H120.431V13.093ZM121.083 13.093H121.734V13.7442H121.083V13.093ZM121.083 12.4419H121.734V13.093H121.083V12.4419ZM121.083 11.1395H121.734V11.7907H121.083V11.1395ZM121.083 10.4884H121.734V11.1395H121.083V10.4884ZM121.083 9.83721H121.734V10.4884H121.083V9.83721ZM121.083 9.18605H121.734V9.83721H121.083V9.18605ZM120.431 9.83721H121.083V10.4884H120.431V9.83721ZM120.431 10.4884H121.083V11.1395H120.431V10.4884ZM120.431 11.1395H121.083V11.7907H120.431V11.1395ZM120.431 11.7907H121.083V12.4419H120.431V11.7907ZM120.431 12.4419H121.083V13.093H120.431V12.4419ZM121.083 11.7907H121.734V12.4419H121.083V11.7907ZM119.78 11.7907H120.431V12.4419H119.78V11.7907ZM119.78 11.1395H120.431V11.7907H119.78V11.1395ZM119.78 10.4884H120.431V11.1395H119.78V10.4884ZM119.78 9.83721H120.431V10.4884H119.78V9.83721ZM119.78 9.18605H120.431V9.83721H119.78V9.18605ZM119.129 9.83721H119.78V10.4884H119.129V9.83721ZM119.78 12.4419H120.431V13.093H119.78V12.4419ZM119.78 13.093H120.431V13.7442H119.78V13.093ZM118.478 15.0465H119.129V15.6977H118.478V15.0465ZM117.827 15.0465H118.478V15.6977H117.827V15.0465ZM117.827 14.3953H118.478V15.0465H117.827V14.3953ZM118.478 14.3953H119.129V15.0465H118.478V14.3953ZM119.129 14.3953H119.78V15.0465H119.129V14.3953ZM119.129 15.0465H119.78V15.6977H119.129V15.0465ZM119.78 15.0465H120.431V15.6977H119.78V15.0465ZM120.431 15.0465H121.083V15.6977H120.431V15.0465ZM121.083 15.0465H121.734V15.6977H121.083V15.0465ZM121.083 14.3953H121.734V15.0465H121.083V14.3953ZM121.083 13.7442H121.734V14.3953H121.083V13.7442ZM120.431 14.3953H121.083V15.0465H120.431V14.3953ZM119.78 14.3953H120.431V15.0465H119.78V14.3953ZM120.431 15.6977H121.083V16.3488H120.431V15.6977ZM120.431 16.3488H121.083V17H120.431V16.3488ZM121.083 16.3488H121.734V17H121.083V16.3488ZM121.083 15.6977H121.734V16.3488H121.083V15.6977ZM121.734 15.0465H122.385V15.6977H121.734V15.0465ZM121.734 14.3953H122.385V15.0465H121.734V14.3953ZM122.385 14.3953H123.036V15.0465H122.385V14.3953ZM122.385 15.0465H123.036V15.6977H122.385V15.0465ZM122.385 15.6977H123.036V16.3488H122.385V15.6977ZM122.385 16.3488H123.036V17H122.385V16.3488ZM121.734 16.3488H122.385V17H121.734V16.3488ZM121.734 15.6977H122.385V16.3488H121.734V15.6977ZM123.036 14.3953H123.687V15.0465H123.036V14.3953ZM123.687 14.3953H124.338V15.0465H123.687V14.3953ZM123.687 15.0465H124.338V15.6977H123.687V15.0465ZM123.036 15.0465H123.687V15.6977H123.036V15.0465ZM124.338 14.3953H124.99V15.0465H124.338V14.3953ZM124.99 14.3953H125.641V15.0465H124.99V14.3953ZM124.338 15.0465H124.99V15.6977H124.338V15.0465ZM124.338 13.7442H124.99V14.3953H124.338V13.7442ZM124.338 13.093H124.99V13.7442H124.338V13.093ZM124.99 13.093H125.641V13.7442H124.99V13.093ZM124.99 13.7442H125.641V14.3953H124.99V13.7442ZM125.641 13.093H126.292V13.7442H125.641V13.093ZM126.292 12.4419H126.943V13.093H126.292V12.4419ZM126.292 11.7907H126.943V12.4419H126.292V11.7907ZM126.292 11.1395H126.943V11.7907H126.292V11.1395ZM125.641 11.1395H126.292V11.7907H125.641V11.1395ZM124.99 11.1395H125.641V11.7907H124.99V11.1395ZM124.99 11.7907H125.641V12.4419H124.99V11.7907ZM124.338 11.7907H124.99V12.4419H124.338V11.7907ZM124.338 12.4419H124.99V13.093H124.338V12.4419ZM124.99 12.4419H125.641V13.093H124.99V12.4419ZM125.641 12.4419H126.292V13.093H125.641V12.4419ZM125.641 11.7907H126.292V12.4419H125.641V11.7907ZM124.338 11.1395H124.99V11.7907H124.338V11.1395ZM124.338 10.4884H124.99V11.1395H124.338V10.4884ZM124.99 10.4884H125.641V11.1395H124.99V10.4884ZM124.99 9.83721H125.641V10.4884H124.99V9.83721ZM125.641 9.83721H126.292V10.4884H125.641V9.83721ZM126.292 9.83721H126.943V10.4884H126.292V9.83721ZM126.292 10.4884H126.943V11.1395H126.292V10.4884ZM125.641 10.4884H126.292V11.1395H125.641V10.4884ZM124.338 9.83721H124.99V10.4884H124.338V9.83721ZM124.338 9.18605H124.99V9.83721H124.338V9.18605ZM124.99 9.18605H125.641V9.83721H124.99V9.18605ZM124.99 8.53488H125.641V9.18605H124.99V8.53488ZM125.641 8.53488H126.292V9.18605H125.641V8.53488ZM126.292 8.53488H126.943V9.18605H126.292V8.53488ZM126.292 9.18605H126.943V9.83721H126.292V9.18605ZM125.641 9.18605H126.292V9.83721H125.641V9.18605ZM124.338 8.53488H124.99V9.18605H124.338V8.53488ZM121.734 5.93023H122.385V6.5814H121.734V5.93023ZM121.734 6.5814H122.385V7.23256H121.734V6.5814ZM122.385 6.5814H123.036V7.23256H122.385V6.5814ZM122.385 5.93023H123.036V6.5814H122.385V5.93023ZM121.083 7.23256H121.734V7.88372H121.083V7.23256ZM120.431 7.23256H121.083V7.88372H120.431V7.23256ZM121.083 7.88372H121.734V8.53488H121.083V7.88372ZM120.431 7.88372H121.083V8.53488H120.431V7.88372ZM123.036 5.93023H123.687V6.5814H123.036V5.93023ZM123.687 5.93023H124.338V6.5814H123.687V5.93023ZM123.687 6.5814H124.338V7.23256H123.687V6.5814ZM123.036 6.5814H123.687V7.23256H123.036V6.5814ZM124.338 5.93023H124.99V6.5814H124.338V5.93023ZM124.99 5.93023H125.641V6.5814H124.99V5.93023ZM124.99 6.5814H125.641V7.23256H124.99V6.5814ZM124.338 6.5814H124.99V7.23256H124.338V6.5814ZM126.943 7.88372H127.594V8.53488H126.943V7.88372ZM126.943 7.23256H127.594V7.88372H126.943V7.23256ZM127.594 7.23256H128.245V7.88372H127.594V7.23256ZM127.594 7.88372H128.245V8.53488H127.594V7.88372ZM126.292 7.23256H126.943V7.88372H126.292V7.23256ZM125.641 7.23256H126.292V7.88372H125.641V7.23256ZM124.99 7.23256H125.641V7.88372H124.99V7.23256ZM124.338 7.23256H124.99V7.88372H124.338V7.23256ZM124.99 7.88372H125.641V8.53488H124.99V7.88372ZM125.641 7.88372H126.292V8.53488H125.641V7.88372ZM126.292 7.88372H126.943V8.53488H126.292V7.88372ZM124.338 7.88372H124.99V8.53488H124.338V7.88372ZM119.78 15.6977H120.431V16.3488H119.78V15.6977ZM125.641 6.5814H126.292V7.23256H125.641V6.5814ZM119.78 7.88372H120.431V8.53488H119.78V7.88372ZM123.036 15.6977H123.687V16.3488H123.036V15.6977ZM125.641 13.7442H126.292V14.3953H125.641V13.7442ZM126.292 13.093H126.943V13.7442H126.292V13.093ZM126.292 13.7442H126.943V14.3953H126.292V13.7442ZM126.292 14.3953H126.943V15.0465H126.292V14.3953ZM125.641 14.3953H126.292V15.0465H125.641V14.3953ZM126.943 14.3953H127.594V15.0465H126.943V14.3953ZM127.594 14.3953H128.245V15.0465H127.594V14.3953ZM127.594 15.0465H128.245V15.6977H127.594V15.0465ZM126.943 15.0465H127.594V15.6977H126.943V15.0465ZM125.641 15.0465H126.292V15.6977H125.641V15.0465ZM124.99 15.0465H125.641V15.6977H124.99V15.0465ZM126.292 15.0465H126.943V15.6977H126.292V15.0465ZM125.641 15.6977H126.292V16.3488H125.641V15.6977ZM124.99 15.6977H125.641V16.3488H124.99V15.6977ZM126.292 15.6977H126.943V16.3488H126.292V15.6977ZM126.943 15.6977H127.594V16.3488H126.943V15.6977ZM126.292 16.3488H126.943V17H126.292V16.3488ZM124.99 16.3488H125.641V17H124.99V16.3488ZM125.641 16.3488H126.292V17H125.641V16.3488ZM121.083 6.5814H121.734V7.23256H121.083V6.5814Z" fill="white"/>
</svg>
